<svg xmlns="http://www.w3.org/2000/svg" viewBox="0 0 100 100" width="200" height="200">
  <!-- Background circle with brush stroke effect -->
  <circle cx="50" cy="50" r="42" fill="#5b9a94"/>
  
  <!-- Brush stroke rings -->
  <ellipse cx="50" cy="50" rx="46" ry="44" fill="none" stroke="#5b9a94" stroke-width="1.5" opacity="0.6"/>
  <ellipse cx="50" cy="50" rx="48" ry="46" fill="none" stroke="#5b9a94" stroke-width="1" opacity="0.4"/>
  
  <!-- Coral branches - white silhouette -->
  <g fill="white">
    <!-- Main branch from bottom left -->
    <path d="M20,75 Q25,60 30,55 Q35,50 32,42 Q28,35 35,28 Q38,25 36,20
             Q38,22 42,28 Q45,35 42,42 Q38,48 42,52 Q48,58 45,65 Q42,72 35,75 Z"/>
    
    <!-- Right branch -->
    <path d="M55,80 Q58,70 62,65 Q68,58 65,50 Q62,42 68,35 Q72,30 70,22
             Q74,28 76,35 Q78,45 72,52 Q66,58 70,65 Q75,72 72,80 Z"/>
    
    <!-- Top right small branch -->
    <path d="M70,35 Q75,32 80,35 Q85,40 82,48 Q78,42 75,40 Q72,38 70,35 Z"/>
    
    <!-- Center top branch -->
    <path d="M45,45 Q48,38 52,32 Q55,26 52,18
             Q56,24 58,32 Q60,40 55,45 Q50,48 45,45 Z"/>
    
    <!-- Small accent branches -->
    <path d="M28,55 Q22,52 18,55 Q14,60 18,65 Q22,60 25,58 Q28,56 28,55 Z"/>
    <path d="M62,28 Q65,22 72,22 Q68,26 65,28 Q63,30 62,28 Z"/>
  </g>
</svg>
