<?xml version="1.0" encoding="UTF-8" standalone="no"?>
<!-- Created with Inkscape (http://www.inkscape.org/) -->

<svg
   version="1.1"
   id="svg1"
   width="5333.3335"
   height="5333.3335"
   viewBox="0 0 5333.3335 5333.3335"
   sodipodi:docname="japan-map-temp2.pdf"
   xmlns:inkscape="http://www.inkscape.org/namespaces/inkscape"
   xmlns:sodipodi="http://sodipodi.sourceforge.net/DTD/sodipodi-0.dtd"
   xmlns="http://www.w3.org/2000/svg"
   xmlns:svg="http://www.w3.org/2000/svg">
  <defs
     id="defs1" />
  <sodipodi:namedview
     id="namedview1"
     pagecolor="#ffffff"
     bordercolor="#000000"
     borderopacity="0.25"
     inkscape:showpageshadow="2"
     inkscape:pageopacity="0.0"
     inkscape:pagecheckerboard="0"
     inkscape:deskcolor="#d1d1d1">
    <inkscape:page
       x="0"
       y="0"
       inkscape:label="1"
       id="page1"
       width="5333.3335"
       height="5333.3335"
       margin="0"
       bleed="0" />
  </sodipodi:namedview>
  <g
     id="g1"
     inkscape:groupmode="layer"
     inkscape:label="1">
    <g
       id="group-R5">
      <path
         id="path2"
         d="M 40000,0 H 0 V 40000 H 40000 V 0"
         style="fill:#ffffff;fill-opacity:1;fill-rule:nonzero;stroke:none"
         transform="matrix(0.13333333,0,0,-0.13333333,0,5333.3333)" />
      <path
         id="path3"
         d="m 14772.8,13791.4 c 0,0 -38.4,51.2 31.9,89.5 70.3,38.4 108.7,89.5 108.7,89.5 51.1,0 76.7,0 76.7,0 0,0 0,51.1 38.3,0 38.4,-51.1 38.4,-54 70.3,-78.1 32,-24.2 83.1,-43.3 121.5,-62.5 38.3,-19.2 -6.4,-38.4 38.3,-19.2 44.8,19.2 38.4,-60.4 63.9,81.7 25.6,142 0,180.3 0,180.3 0,0 19.2,147 38.4,147 19.2,0 12.8,-19.1 51.1,38.4 38.4,57.5 70.3,121.4 70.3,121.4 0,0 -12.8,172.6 -12.8,211 0,38.3 -25.5,115 -25.5,115 0,0 -25.6,19.2 6.4,95.9 31.9,76.7 70.3,121.4 70.3,166.1 0,44.8 25.5,179 25.5,179 l 89.5,191.7 c 0,0 6.4,70.3 44.8,140.6 38.3,70.4 0,95.9 51.1,153.4 51.1,57.6 102.2,108.7 102.2,108.7 l 51.2,108.6 -32,147 70.3,83.1 95.9,127.9 140.6,115 83.1,83.1 -6.4,172.6 -83.1,185.3 c 0,0 12.8,57.5 -6.4,102.3 -19.2,44.7 -25.5,12.7 -95.8,89.4 -70.4,76.7 -70.4,76.7 -70.4,76.7 l 64,64 c 0,0 -211,38.3 -230.1,38.3 -19.2,0 -312,57.5 -312,57.5 v 166.2 c 0,0 88.3,-32 145.8,-32 57.5,0 44.7,-57.5 76.7,32 31.9,89.5 -38.4,19.2 31.9,89.5 70.4,70.3 76.7,159.8 76.7,159.8 0,0 6.4,153.4 -12.7,166.1 -19.2,12.8 -89.5,83.1 -89.5,83.1 0,0 57.5,-38.3 -51.1,0 -108.7,38.4 -127.9,63.9 -147,32 -19.2,-32 -32,-44.8 -57.6,-83.1 -25.5,-38.4 108.7,-57.5 -76.7,-57.5 -185.3,0 -294,31.9 -294,31.9 l -166.1,63.9 -70.3,59.3 -70.4,222 c 0,0 11.1,25.5 -36,44.7 -47,19.2 0,127.8 0,127.8 l 16.9,63.9 -37.8,44.8 95.3,178.9 102.3,-83 51.1,-76.7 63.9,-38.4 c 0,0 83.1,-19.2 121.4,-12.8 38.4,6.4 76.7,32 76.7,32 0,0 44.8,108.6 115.1,115 70.3,6.4 115.6,-31.9 124.9,-31.9 9.3,0 34.9,12.8 111.6,19.1 76.7,6.4 102.2,12.8 102.2,12.8 l 140.6,63.9 h 127.9 c 0,0 19.1,-57.5 63.9,-89.4 44.7,-32 44.7,-89.5 108.6,-102.3 63.9,-12.8 102.3,-32 159.8,-51.1 57.5,-19.2 57.5,-19.2 57.5,-19.2 l 32,-127.8 83.1,31.9 -25.6,108.7 63.9,108.6 c 0,0 38.4,44.8 44.8,83.1 6.3,38.4 12.7,19.2 12.7,108.7 0,89.5 12.8,121.4 12.8,178.9 0,57.5 12.8,89.5 12.8,89.5 0,0 19.2,70.3 115.1,134.2 95.8,63.9 166.1,83.1 166.1,83.1 0,0 57.6,32 108.7,-6.4 51.1,-38.3 57.5,-89.5 57.5,-89.5 l 44.7,-121.4 102.3,-25.6 h 95.9 c 0,0 51.1,25.6 127.8,76.7 76.7,51.2 76.7,51.2 76.7,51.2 l 83.1,63.9 70.3,12.8 147,50.8 c 0,0 12.8,13.1 95.9,25.9 83,12.7 153.4,0 153.4,0 l 70.3,31.9 102.2,-31.9 c 0,0 76.7,57.5 134.2,83.1 57.6,25.5 89.5,38.3 127.9,57.5 38.3,19.2 121.4,57.5 121.4,57.5 l 108.7,38.3 c 0,0 159.7,-57.5 178.9,-63.9 19.2,-6.4 89.5,-31.9 89.5,-31.9 0,0 95.9,-19.2 140.6,0 44.7,19.2 95.9,95.8 95.9,95.8 0,0 31.9,95.9 83.1,127.9 51.1,31.9 76.7,51.1 76.7,51.1 l 76.7,63.9 25.5,89.5 147,57.5 159.8,70.3 160.4,12.8 c 0,0 -26.2,51.1 146.4,32 172.5,-19.2 223.7,-12.8 268.4,-38.4 44.8,-25.6 108.7,-76.7 172.6,-108.6 63.9,-32 31.9,-44.8 108.6,-57.6 76.7,-12.7 70.3,-19.1 153.4,-19.1 83.1,0 121.5,6.4 191.8,31.9 70.3,25.6 147,44.8 147,44.8 0,0 70.3,44.7 127.8,-12.8 57.5,-57.5 83.1,-121.5 83.1,-121.5 0,0 0,-12.7 0,-95.8 0,-83.1 -115.1,-204.5 -115.1,-204.5 l -70.3,-95.9 c 0,0 -31.9,-83.1 -115,-127.9 -83.1,-44.7 -166.2,-63.9 -166.2,-63.9 0,0 -95.8,0 -95.8,-51.1 0,-51.1 127.8,-127.8 127.8,-127.8 0,0 76.7,-147 51.1,-159.8 -25.6,-12.8 -83.1,-25.6 -83.1,-25.6 l -25.5,-51.1 63.9,-147 -95.9,-38.3 32,-172.6 c 0,0 63.9,-6.4 115,-51.1 51.1,-44.8 166.2,-115.1 166.2,-115.1 l 51.1,-70.3 c 0,0 51.1,-51.1 57.5,-83.1 6.4,-31.9 -63.9,38.4 19.2,-83.1 83.1,-121.4 115,-191.7 115,-191.7 0,0 -38.3,19.2 38.4,-6.4 76.7,-25.6 249.3,-76.7 249.3,-76.7 h 76.7 l 204.5,38.4 83.1,108.6 c 0,0 66,157.7 78.8,157.7 12.8,0 46.9,110.7 46.9,110.7 l 123.5,140.6 c 0,0 -34.1,55.4 59.7,127.9 93.7,72.4 136.3,110.8 136.3,110.8 l 68.2,106.5 v 89.5 l -34.1,174.7 204.5,144.8 c 0,0 153.4,55.4 289.8,81 136.3,25.6 115,42.6 242.8,42.6 127.9,0 323.9,29.8 323.9,29.8 l -51.1,230.1 c 0,0 -81,72.4 -123.6,89.5 -42.6,17 -166.2,76.7 -166.2,76.7 l -174.7,119.3 -127.8,140.6 c 0,0 -21.3,12.8 0,127.8 21.3,115.1 127.8,140.6 149.1,166.2 21.3,25.6 29.8,255.7 55.4,259.9 25.6,4.3 161.9,68.2 161.9,68.2 l 115.1,59.6 c 0,0 38.3,127.9 21.3,0 -17.1,-127.8 -25.6,-157.6 -25.6,-157.6 0,0 -17,39.5 -8.5,-44.2 8.5,-83.6 17,-185.9 38.3,-228.5 21.3,-42.6 59.7,-51.1 51.2,-98 -8.6,-46.9 -102.3,-81 -25.6,-89.5 76.7,-8.5 110.8,42.6 110.8,42.6 l -21.3,187.5 106.5,-68.2 119.3,-38.3 83.1,-6.4 102.2,38.3 134.3,-6.4 v -102.2 l -32,-57.5 -153.4,-44.8 -83.1,-76.7 -63.9,-51.1 c -12.8,-44.7 134.2,-51.1 134.2,-51.1 l 121.5,44.7 c 0,0 83.1,25.6 147,51.1 63.9,25.6 83.1,51.2 127.8,57.6 44.7,6.3 57.5,6.3 140.6,6.3 83.1,0 -44.7,25.6 153.4,0 198.1,-25.5 172.6,-25.5 236.5,-25.5 63.9,0 63.9,0 127.8,0 63.9,0 159.8,-6.4 159.8,-6.4 l 140.6,-57.5 191.7,-70.3 c 0,0 -6.3,102.2 0,127.8 6.4,25.6 57.6,121.4 57.6,121.4 v 44.8 c 0,0 83.1,25.5 102.2,63.9 19.2,38.3 25.6,38.3 25.6,89.5 0,51.1 0,89.4 0,89.4 l 76.7,64 c 0,0 12.8,-3.2 63.9,49.5 51.1,52.7 32,-4.8 51.1,52.7 19.2,57.5 44.8,115.1 44.8,115.1 l 83.1,90.9 h 108.6 l 134.2,49.7 h 89.5 l 108.7,-49.7 12.7,-84.6 v -57.5 c 0,0 -19.1,-25.5 -44.7,-25.5 -25.6,0 -63.9,-6.4 -63.9,-6.4 0,0 -63.9,-59.7 -63.9,-68.2 0,-8.5 6.4,-104.4 6.4,-104.4 0,0 6.4,-38.3 12.8,-108.7 6.3,-70.3 0,-153.3 0,-153.3 v -64 c 0,0 -32,-108.6 6.3,-147 38.4,-38.3 76.7,-57.5 76.7,-57.5 l 95.9,44.8 134.2,108.6 c 0,0 63.9,127.8 76.7,153.4 12.8,25.6 57.5,83.1 57.5,83.1 l 64,102.3 31.9,126.2 -51.1,46.3 -19.2,57.5 v 95.9 l 6.4,51.1 63.9,83.1 c 0,0 -25.6,-12.8 0,32 25.6,44.7 38.4,108.6 38.4,108.6 l 134.2,32 c 0,0 230.1,95.9 255.6,89.5 25.6,-6.4 12.8,44.7 127.9,-19.2 115,-63.9 140.6,-57.5 153.4,-121.4 12.7,-63.9 -25.6,-12.8 12.7,-63.9 38.4,-51.2 38.4,-51.2 38.4,-51.2 l 102.2,153.4 c 0,0 -57.5,97 -70.3,115.6 -12.7,18.6 -51.1,127.3 -51.1,127.3 l 95.9,127.8 115,89.5 v 147 c 0,0 32,108.6 57.5,108.6 25.6,0 89.5,-38.3 134.3,-38.3 44.7,0 51.1,127.8 51.1,127.8 0,0 -32,-12.8 32,0 63.9,12.8 121.4,0 121.4,0 0,0 44.7,-57.5 70.3,-95.8 25.6,-38.4 57.5,-51.2 57.5,-51.2 l -70.3,-108.6 -178.9,-147 c 0,0 -108.7,6.4 -134.3,-115.1 -25.5,-121.4 -25.5,-121.4 -25.5,-121.4 l 31.9,-121.4 -6.4,-70.4 -63.9,-57.5 -12.8,-70.3 c 0,0 -6.4,-102.2 -19.1,-153.4 -12.8,-51.1 -12.8,-89.5 -12.8,-89.5 l -12.8,-127.8 89.5,-63.9 c 0,0 51.1,12.8 89.5,25.6 38.3,12.8 70.3,68.7 70.3,68.7 0,0 -19.2,-17.6 57.5,84.7 76.7,102.2 63.9,121.4 89.5,127.8 25.5,6.4 44.7,-12.8 108.6,19.2 63.9,31.9 -51.1,-6.4 108.7,44.7 159.8,51.1 121.4,25.6 159.8,51.1 38.3,25.6 121.4,115.1 121.4,115.1 19.2,57.5 0,159.8 0,159.8 0,0 38.3,0 44.7,38.3 6.4,38.4 -38.3,115.1 -31.9,134.2 6.4,19.2 32.6,108.7 32.6,108.7 l 76,83.1 83.1,115 153.4,166.2 76.7,56.8 c 0,0 32,-0.7 95.9,0 63.9,0.7 159.8,39.1 159.8,39.1 l -159.8,204.5 -204.5,485.7 -76.7,268.5 38.3,115 51.1,153.4 25.6,134.2 76.7,268.5 70.3,255.6 51.1,134.2 19.2,83.1 153.4,70.3 89.5,38.4 v 191.7 l 83.1,242.9 v 230.1 255.6 204.5 l -38.4,179 -38.3,179 -44.8,147 -25.5,70.3 6.4,217.3 51.1,191.7 134.2,230.1 38.3,51.1 -38.3,115.1 h 108.7 l 51.1,-76.7 c 63.9,6.4 140.6,121.4 140.6,121.4 0,0 -63.9,32 76.7,0 140.6,-31.9 140.6,-31.9 140.6,-31.9 l 70.3,-108.7 v -63.9 l 12.8,-32 c 0,0 25.6,-19.1 76.7,12.8 51.1,32 51.1,115.1 51.1,115.1 l -31.9,31.9 c 0,0 -6.4,32 -6.4,51.2 0,19.1 0,-16.4 0,39.7 0,56.1 38.3,107.3 38.3,107.3 l 25.6,89.4 c 0,0 -89.5,25.6 -108.7,25.6 -19.1,0 35.2,91.1 35.2,91.1 l 19.2,25.5 -70.3,41.6 -14.4,39.9 c 0,0 54.3,71.9 63.9,81.5 9.6,9.6 55.9,36.8 55.9,36.8 l 8,39.9 -12.8,52.7 c 0,0 -9.6,22.4 24,71.9 33.5,49.6 68.7,97.5 68.7,97.5 0,0 -16,12.8 14.4,40 30.3,27.1 20.7,17.5 57.5,47.9 36.7,30.4 65.5,57.5 65.5,57.5 l 8,57.5 145.4,60.8 60.7,54.3 55.9,75.1 c 0,0 -12.7,68.7 0,92.7 12.8,23.9 49.6,79.8 59.2,129.4 9.5,49.5 22.3,105.4 22.3,105.4 l 14.4,86.3 c 0,0 17.6,87.9 55.9,137.4 38.4,49.6 65.5,97.5 65.5,97.5 l 6.4,198.1 c 0,0 9.6,19.2 0,56 -9.6,36.7 -17.5,47.9 -17.5,47.9 0,0 -28.8,-30.4 -36.8,-14.4 -8,16 -30.4,95.9 -30.4,95.9 l 12.8,75.1 c 0,0 -27.1,242.9 -28.7,252.4 -1.6,9.6 -20.8,139.1 -20.8,139.1 l -27.2,55.9 -79.9,95.8 -51.1,78.3 -24,110.3 12.8,110.2 -23.9,107.1 c 0,0 -67.7,146.5 -76.2,159.3 -8.5,12.7 46.9,-29.9 -68.2,80.9 -115,110.8 -149.1,204.5 -149.1,204.5 0,0 42.6,-8.5 -46.9,29.8 -89.5,38.4 -110.8,34.1 -119.3,55.4 -8.5,21.4 -34.1,64 -34.1,64 l -85.2,234.3 -51.1,349.4 4.2,259.9 21.3,234.4 42.7,242.8 42.6,157.7 c 0,0 -102.3,-46.9 -115.1,-59.7 -12.8,-12.7 -25.5,-46.8 -63.9,-46.8 -38.3,0 -85.2,-8.5 -85.2,-8.5 h -55.4 c 0,0 -21.3,-17.1 -102.3,46.8 -80.9,63.9 -80.9,63.9 -80.9,63.9 l -144.9,93.8 -115,63.9 -51.2,25.6 c 0,0 -38.3,-42.7 -46.8,-119.4 -8.6,-76.6 -21.3,-110.7 -46.9,-136.3 -25.6,-25.6 -21.3,42.6 -46.9,-42.6 -25.5,-85.2 -38.3,-102.3 -46.8,-144.9 -8.6,-42.6 -25.6,-123.5 -25.6,-123.5 l 21.3,-110.8 h 34.1 l 93.7,51.1 187.5,42.6 h 68.2 l 59.6,17.1 c 0,0 51.2,25.5 85.2,59.6 34.1,34.1 25.6,68.2 72.5,42.6 46.9,-25.5 76.7,-68.2 76.7,-68.2 0,0 21.3,51.2 25.5,-55.3 4.3,-106.6 -21.3,-127.9 -34.1,-153.4 -12.7,-25.6 -29.8,-98 -29.8,-98 0,0 38.4,-8.6 4.3,-106.6 -34.1,-98 -42.6,-110.7 -46.9,-136.3 -4.2,-25.6 -8.5,-59.7 -38.3,-63.9 -29.9,-4.3 -51.2,-4.3 -76.7,-4.3 -25.6,0 -46.9,0 -46.9,0 l -81,68.2 -76.7,89.5 c 0,0 -17,38.3 -68.1,46.8 -51.2,8.6 -51.2,8.6 -51.2,8.6 0,0 -63.9,-144.9 -63.9,-166.2 0,-21.3 -4.2,-63.9 -4.2,-63.9 l -46.9,-42.6 -55.4,-17.1 h -38.3 l -59.7,8.5 -21.3,64 c 0,0 -34.1,25.5 -46.9,72.4 -12.7,46.9 -17,34.1 -17,89.5 0,55.4 0,123.5 0,178.9 0,55.4 4.3,76.7 -21.3,140.6 -25.6,63.9 -17.1,81 -34.1,85.3 -17,4.2 -25.6,12.7 -51.1,12.7 -25.6,0 -55.4,0 -72.5,-8.5 -17,-8.5 -4.2,-21.3 -51.1,-25.6 -46.9,-4.2 -89.5,-4.2 -89.5,-4.2 l -93.7,132.1 -46.9,-17.1 -25.6,-157.6 -21.3,-38.4 -25.5,-68.1 c 0,0 17,-8.6 21.3,-29.9 4.2,-21.3 4.2,-115 4.2,-115 0,0 -17,-149.1 -21.3,-183.2 -4.2,-34.1 -42.6,-153.4 -42.6,-153.4 0,0 21.3,25.5 -25.5,-25.6 -46.9,-51.1 -51.2,-55.4 -89.5,-81 -38.4,-25.5 -132.1,-42.6 -132.1,-42.6 0,0 -29.8,34.1 -72.4,38.4 -42.6,4.2 -98,-89.5 -132.1,-119.3 -34.1,-29.8 -8.5,34.1 -68.2,-42.6 -59.7,-76.7 -106.5,-110.8 -102.3,-123.6 4.3,-12.8 132.1,-38.3 136.4,-76.7 4.2,-38.3 8.5,-132.1 8.5,-132.1 0,0 25.6,-106.5 34.1,-127.8 8.5,-21.3 8.5,4.3 25.6,-51.1 17,-55.4 29.8,-63.9 29.8,-93.8 0,-29.8 12.8,-68.2 -17.1,-149.1 -29.8,-81 -4.2,-183.2 -12.7,-196 -8.6,-12.8 -59.7,-72.4 -64,-85.2 -4.2,-12.8 -102.2,-174.7 -102.2,-174.7 l -98,-55.4 -157.7,72.4 21.3,-153.4 42.6,-72.4 76.7,-25.6 191.8,59.7 c 0,0 76.7,-8.5 89.5,-59.7 12.7,-51.1 110.7,-149.1 110.7,-149.1 l 17.1,-106.5 c 0,0 4.3,-132.1 4.3,-174.7 0,-42.6 46.8,63.9 -12.8,-123.6 -59.7,-187.5 -68.2,-183.2 -68.2,-247.1 0,-63.9 17,-59.7 -12.8,-127.8 -29.8,-68.2 -93.7,-38.4 -110.8,-85.3 -17,-46.8 -17,-89.4 -17,-89.4 l -8.5,-136.4 c 0,0 -17.1,-25.6 -34.1,-106.5 -17.1,-81 -34.1,-149.1 -46.9,-179 -12.8,-29.8 -8.5,0 -34.1,-89.5 -25.6,-89.4 -93.7,-191.7 -93.7,-191.7 l -55.4,-76.7 -68.2,-127.8 -72.4,-68.2 -144.9,-247.1 -140.6,-242.9 12.8,-140.6 c 0,0 -4.3,-85.2 -17.1,-153.4 -12.7,-68.2 -8.5,-46.9 -38.3,-110.8 -29.8,-63.9 -98,-127.8 -98,-127.8 0,0 -17.1,-34.1 -51.1,-55.4 -34.1,-21.3 -68.2,-34.1 -127.9,-76.7 -59.6,-42.6 -51.1,-51.1 -110.8,-76.7 -59.6,-25.6 -144.8,-72.4 -144.8,-72.4 l -38.4,-17.1 -208.8,-140.6 -115,-93.7 -59.7,-221.6 -89.4,-213 -161.9,-170.5 -136.4,-183.2 -149.1,-72.4 -106.5,-106.5 -106.6,-72.5 -89.5,-68.2 -55.3,-4.2 -85.3,-8.5 c 0,0 -68.1,-4.3 -110.7,-34.1 -42.7,-29.8 -106.6,-106.5 -106.6,-106.5 0,0 0,-25.6 -89.4,-51.2 -89.5,-25.5 -123.6,-21.3 -196.1,-51.1 -72.4,-29.8 -161.9,-25.6 -178.9,-34.1 -17,-8.5 -68.2,-42.6 -106.5,-59.6 -38.4,-17.1 -98,-17.1 -136.4,-34.1 -38.3,-17.1 -106.5,-63.9 -106.5,-63.9 l -4.3,-102.3 c 0,0 4.3,-89.5 -38.3,-115.1 -42.6,-25.5 -42.6,-25.5 -76.7,-34 -34.1,-8.6 -59.7,-8.6 -59.7,-8.6 0,0 -21.3,4.3 -80.9,0 -59.7,-4.2 -153.4,-4.2 -153.4,-4.2 0,0 -29.8,-12.8 -55.4,8.5 -25.6,21.3 -68.2,59.7 -68.2,59.7 l -59.6,97.9 17,102.3 21.3,93.8 29.8,153.3 -21.3,187.5 -89.4,-21.3 c 0,0 -93.8,-63.9 -102.3,-4.2 -8.5,59.6 -51.1,29.8 -8.5,59.6 42.6,29.8 85.2,63.9 85.2,63.9 h 46.9 c 0,0 -8.5,-21.3 21.3,-4.2 29.8,17 59.6,34.1 89.5,46.8 29.8,12.8 51.1,21.3 76.6,38.4 25.6,17 4.3,38.3 59.7,42.6 55.4,4.2 63.9,-8.5 85.2,12.8 21.3,21.3 63.9,68.1 63.9,68.1 0,0 12.8,-12.7 8.6,46.9 -4.3,59.7 8.5,72.5 38.3,102.3 29.8,29.8 55.4,59.6 76.7,72.4 21.3,12.8 68.2,-17 42.6,42.6 -25.6,59.7 -55.4,98 -89.5,89.5 -34.1,-8.5 -93.7,-25.6 -93.7,-25.6 0,0 -123.6,-51.1 -144.9,-59.6 -21.3,-8.5 -59.6,-34.1 -59.6,-34.1 l -63.9,-38.4 -81,-46.8 -89.5,-12.8 -119.3,-42.6 -136.3,-12.8 -64,-63.9 -25.5,-93.8 c 0,0 4.2,-29.8 0,-68.1 -4.3,-38.4 -42.6,-110.8 -42.6,-110.8 0,0 -21.3,-63.9 -4.3,-93.7 17.1,-29.9 29.8,-21.3 42.6,-59.7 12.8,-38.3 8.5,-119.3 12.8,-161.9 4.3,-42.6 4.3,-115.1 12.8,-161.9 8.5,-46.9 17,-123.6 17,-123.6 0,0 21.3,4.3 4.3,-55.4 -17.1,-59.6 -38.4,-46.9 -81,-149.1 -42.6,-102.3 -115,-200.3 -115,-200.3 l -161.1,-208.8 -299.1,-332.3 -25.5,-12.8 -98,-106.5 -98.1,-21.3 c 0,0 -17,17 -29.8,-29.8 -12.8,-46.9 -29.8,-93.8 -63.9,-144.9 -34.1,-51.2 8.5,-8.5 -59.6,-72.5 -68.2,-63.9 -115.1,-123.5 -115.1,-123.5 l -12.8,-89.5 42.6,-81 68.2,-178.9 68.2,-93.8 c 0,0 21.3,12.8 21.3,-29.8 0,-42.6 4.3,-51.1 -17.1,-89.5 -21.3,-38.3 -46.8,-63.9 -46.8,-63.9 l -51.2,170.5 c 0,0 4.3,55.4 -29.8,-17.1 -34.1,-72.4 -55.4,-98 -55.4,-115 0,-17.1 4.3,-89.5 -4.2,-102.3 -8.5,-12.8 -46.9,-25.6 -46.9,-25.6 0,0 12.8,25.6 -46.9,0 -59.6,-25.5 -93.7,-42.6 -127.8,-29.8 -34.1,12.8 21.3,-119.3 21.3,-119.3 l -55.4,-17 c 0,0 -8.5,0 -25.6,0 -17,0 -59.6,-34.1 -59.6,-34.1 l -42.6,-8.5 c 0,0 -12.8,42.6 -25.6,42.6 -12.8,0 -98,-29.9 -98,-29.9 h -34.1 l -132.1,-17 c 0,0 -17,0 -25.5,55.4 -8.5,55.4 -29.8,55.4 -42.6,55.4 -12.8,0 -17.1,-4.3 -46.9,-34.1 -29.8,-29.8 -21.3,-42.6 -68.2,-46.9 -46.8,-4.2 -80.9,-4.2 -80.9,-4.2 0,0 42.6,-85.2 -46.9,0 -89.5,85.2 -106.5,115 -106.5,115 0,0 110.8,81 127.8,110.8 17,29.8 42.6,76.7 42.6,76.7 l -102.3,119.3 -97.9,17 -98,-55.4 c 0,0 -89.5,-46.8 -127.9,-63.9 -38.3,-17 -76.7,-29.8 -89.5,-42.6 -12.7,-12.8 -140.6,-21.3 -140.6,-21.3 l -89.4,-25.5 c 0,0 -55.4,-4.3 -144.9,-4.3 -89.5,0 -149.1,0 -149.1,0 l -206.7,-25.6 -51.1,-12.8 c 0,0 -102.3,-29.8 -125.7,-36.2 -23.5,-6.4 -98,-34.1 -98,-34.1 0,0 -12.8,-10.6 -44.8,-27.7 -31.9,-17 -115,-63.9 -115,-63.9 0,0 -32,-2.1 -66.1,-2.1 -34,0 -53.2,0 -53.2,0 h -98 c 0,0 -10.7,4.3 -108.7,0 -98,-4.3 -187.4,-12.8 -187.4,-12.8 0,0 -29.9,-8.5 -72.5,-17 -42.6,-8.5 -129.9,-10.7 -129.9,-10.7 h -93.8 c 0,0 -29.8,-6.4 -89.5,2.2 -59.6,8.5 -129.9,4.2 -129.9,4.2 l -83.1,-40.5 -70.3,-19.1 c 0,0 -70.3,-8.6 -83.1,25.5 -12.8,34.1 -36.2,87.4 -36.2,87.4 l -19.2,70.3 c 0,0 34.1,12.8 -29.8,21.3 -63.9,8.5 -228,2.1 -228,2.1 l -72.4,-38.3 -93.7,-36.2 c 0,0 -29.9,-12.8 -72.5,-29.9 -42.6,-17 -91.6,-38.3 -134.2,-53.2 -42.6,-14.9 -110.8,-25.6 -110.8,-25.6 l -98,-44.7 c 0,0 -44.7,-19.2 -61.8,-27.7 -17,-8.6 -42.6,-36.3 -42.6,-36.3 l 46.9,-117.1 -46.9,-121.5 -115,-36.2 c 0,0 -199.2,-127.8 -202.4,-140.6 -3.2,-12.8 -89.5,-111.8 -89.5,-111.8 0,0 -51.1,-64 -79.9,-102.3 -28.7,-38.4 -35.1,-67.1 -92.7,-99.1 -57.5,-31.9 -137.4,-70.3 -137.4,-70.3 l -159.8,-121.4 c 0,0 -86.2,-47.9 -137.4,-118.2 -51.1,-70.4 -67.1,-108.7 -105.4,-140.7 -38.4,-31.9 -51.2,-44.7 -105.5,-83 -54.3,-38.4 -47.9,-38.4 -92.7,-57.6 -44.7,-19.1 -127.8,-31.9 -127.8,-31.9 0,0 -31.9,35.1 -83.1,-19.2 -51.1,-54.3 -131,-194.9 -131,-194.9 l -44.7,-48 c 0,0 -28.8,-63.9 -70.3,-99 -41.6,-35.2 -111.9,-79.9 -111.9,-79.9 l -118.2,-89.5 c 0,0 -255.7,-12.8 -271.7,-9.6 -15.9,3.2 -89.4,76.7 -89.4,76.7 0,0 -41.6,60.7 -76.7,22.4 -35.2,-38.4 -89.5,-124.7 -89.5,-124.7 0,0 -35.2,-3.2 -54.3,-6.4 -19.2,-3.1 -70.3,16 -44.8,-57.5 25.6,-73.5 67.1,-188.5 67.1,-188.5 l 19.2,-76.7 -41.5,-60.7 c 0,0 -35.2,-41.6 -35.2,-70.3 0,-28.8 -9.6,-41.6 22.4,-102.3 31.9,-60.7 51.1,-143.8 51.1,-143.8 l -108.6,-35.2 h -118.3 c 0,0 -57.5,9.6 -76.7,-3.2 -19.2,-12.7 -86.3,-35.1 -124.6,-47.9 -38.4,-12.8 -35.2,-19.2 -73.5,-25.5 -38.4,-6.4 -76.7,-6.4 -76.7,-6.4 l -70.3,-92.7 c 0,0 -38.4,-38.4 -41.6,-83.1 -3.2,-44.7 -12.7,-108.7 -12.7,-108.7 l -16,-67.1 -22.4,-131 -92.7,-38.3 -95.8,-6.4 c 0,0 -92.7,63.9 -124.7,70.3 -31.9,6.4 -47.9,44.7 -89.4,3.2 -41.6,-41.6 -83.1,-83.1 -83.1,-83.1 0,0 47.9,-57.5 22.3,-70.3 -25.5,-12.8 -99,-48 -99,-48 l -51.2,-73.5 c 0,0 19.2,-22.3 -22.3,-25.5 -41.6,-3.2 -99.1,47.9 -99.1,47.9 l -3.2,54.3 -92.7,38.4 -95.8,-83.1 c 0,0 -32,-60.7 -28.8,-86.3 3.2,-25.6 73.5,-67.1 83.1,-86.3 9.6,-19.1 31.9,-89.4 31.9,-89.4 l -6.3,-76.7 -67.2,19.1 c 0,0 3.2,28.8 -89.4,60.7 -92.7,32 -159.8,60.8 -159.8,60.8 l -134.2,-12.8 c 0,0 -73.5,70.3 -12.8,102.3 60.7,31.9 19.2,111.8 0,118.2 -19.2,6.4 -70.3,-54.3 -73.5,-83.1 -3.2,-28.8 -3.2,-115 -3.2,-115 l -25.6,-25.6 -63.9,105.5 c 0,0 -38.3,41.5 -35.1,-67.2 3.1,-108.6 3.1,-137.4 3.1,-137.4 l -35.1,-127.8 -51.1,-118.2 47.9,-6.4 115,89.4 108.7,143.9 44.7,15.9 -19.1,-143.8 c 0,0 54.3,-22.3 67.1,-25.5 12.8,-3.2 108.6,-108.7 108.6,-108.7 l 54.3,-35.1 70.4,-51.2 54.3,-60.7 c 0,0 0,-22.4 70.3,-28.8 70.3,-6.3 67.1,22.4 102.3,-44.7 35.1,-67.1 35.1,-95.9 57.5,-134.2 22.3,-38.4 0,-44.8 22.3,-89.5 22.4,-44.7 28.8,-70.3 28.8,-70.3 0,0 -60.7,-3.2 -111.8,-9.6 -51.2,-6.4 -108.7,-6.4 -108.7,-6.4 0,0 -76.7,92.7 -70.3,102.3 6.4,9.6 28.8,124.6 28.8,124.6 l -57.6,79.9 -99,38.4 -83.1,-16 c 0,0 -35.2,-102.3 -25.6,-137.4 9.6,-35.2 6.4,-51.2 22.4,-86.3 16,-35.2 89.5,-127.8 89.5,-127.8 0,0 57.5,-64 70.3,-73.5 12.8,-9.6 92.6,-121.5 92.6,-121.5 l 41.6,-12.8 -44.8,-89.4 c 0,0 -57.5,-60.8 -57.5,-89.5 0,-28.8 -6.4,-140.6 -6.4,-140.6 l 265.3,313.1 47.9,67.2 70.3,31.9 79.9,3.2 143.8,-9.6 c 0,0 3.2,6.4 16,-19.2 12.8,-25.5 25.6,-54.3 0,-89.4 -25.6,-35.2 -60.7,-41.6 -63.9,-79.9 -3.2,-38.4 -95.9,-41.6 9.6,-60.7 105.4,-19.2 76.7,-38.4 182.1,-16 105.5,22.4 124.6,102.2 124.6,102.2 l 51.2,121.5 -25.6,147 c 0,0 -83.1,25.5 -143.8,25.5 -60.7,0 -147,-19.1 -147,-19.1 l -89.5,22.3 c 0,0 -83.1,-6.4 41.6,51.2 124.6,57.5 121.4,47.9 140.6,76.7 19.2,28.7 19.2,60.7 19.2,60.7 l -95.9,134.2 -19.2,102.3 9.6,76.7 67.1,22.3 108.7,12.8 127.8,-86.3 105.4,-131 -9.5,-131 9.5,-60.7 64,-83.1 c 0,0 28.7,-12.8 79.9,-51.2 51.1,-38.3 60.7,-51.1 67.1,-95.8 6.4,-44.8 9.5,-79.9 -6.4,-111.9 -16,-31.9 -105.5,-105.4 -105.5,-118.2 0,-12.8 16,6.4 -19.2,-41.6 -35.1,-47.9 -54.3,-51.1 -73.5,-67.1 -19.1,-15.9 -25.5,-31.9 -15.9,-35.1 9.5,-3.2 31.9,-3.2 31.9,-3.2 0,0 22.4,-19.2 111.9,28.7 89.4,48 105.4,51.2 105.4,51.2 l 25.6,-6.4 c 0,0 12.8,-25.6 -16,-41.6 -28.8,-15.9 -67.1,-41.5 -67.1,-41.5 l -44.7,-63.9 12.7,-63.9 c 0,0 -6.3,-22.4 -6.3,-48 0,-25.5 9.5,-6.4 3.1,-67.1 -6.3,-60.7 -35.1,-92.7 -35.1,-92.7 0,0 -12.8,-12.7 -41.5,-67.1 -28.8,-54.3 -41.6,-83 -67.2,-115 -25.5,-32 -41.5,-35.2 -57.5,-63.9 -16,-28.8 -22.4,-35.2 -38.3,-60.7 -16,-25.6 -28.8,-48 -35.2,-83.1 -6.4,-35.2 -16,-54.4 -16,-54.4 l -38.3,-19.1 c 0,0 -47.9,-3.2 -76.7,-3.2 -28.8,0 16,-73.5 -47.9,3.2 -63.9,76.7 -57.6,60.7 -63.9,76.7 -6.4,16 -67.2,95.8 -67.2,95.8 0,0 0,16 -25.5,-22.3 -25.6,-38.4 -57.5,-41.6 -41.6,-73.5 16,-32 9.6,-73.5 51.2,-121.5 41.5,-47.9 44.7,-31.9 54.3,-63.9 9.6,-31.9 22.4,-169.3 22.4,-169.3 l 15.9,-102.3 -28.7,-207.7 c 0,0 -35.2,-19.2 0,-54.4 35.1,-35.1 28.7,-47.9 63.9,-70.3 35.1,-22.3 79.9,-47.9 105.4,-83 25.6,-35.2 35.2,-54.4 35.2,-83.1 0,-28.8 -3.2,-79.9 -12.8,-115.1 -9.6,-35.1 -28.7,-124.6 -31.9,-137.4 -3.2,-12.8 -22.4,-57.5 -41.6,-70.3 -19.2,-12.8 -54.3,-35.1 -54.3,-35.1 0,0 -22.4,-12.8 -38.4,-16 -15.9,-3.2 -83,-3.2 -83,-3.2 h -28.8 c 0,0 -22.4,-28.8 19.2,-63.9 41.5,-35.2 41.5,-19.2 60.7,-48 19.2,-28.7 19.2,-47.9 22.4,-67.1 3.2,-19.2 0,-57.5 0,-67.1 0,-9.6 9.5,-41.5 9.5,-41.5 h 342 c 0,0 25.5,-6.4 60.7,-35.2 35.1,-28.7 32,-95.9 32,-95.9 0,0 -51.2,-19.1 31.9,-25.5 83.1,-6.4 105.5,-6.4 105.5,-6.4 0,0 63.9,86.3 70.3,102.3 6.4,15.9 6.4,70.3 6.4,70.3 l -41.6,63.9 -57.5,67.1 c 0,0 -32,16 -38.4,54.3 -6.3,38.4 16,16 -3.1,60.7 -19.2,44.8 -22.4,54.3 -28.8,63.9 -6.4,9.6 -22.4,124.7 -22.4,124.7 l 9.6,41.5 32,76.7 c 0,0 28.7,22.4 44.7,63.9 16,41.6 44.7,127.8 44.7,127.8 0,0 -9.5,64 25.6,67.2 35.2,3.2 99.1,15.9 127.8,15.9 28.8,0 86.3,-12.7 86.3,-12.7 0,0 51.2,-9.6 63.9,-38.4 12.8,-28.8 16,-76.7 16,-76.7 0,0 -47.9,-79.9 -57.5,-86.3 -9.6,-6.4 -35.2,-19.2 -35.2,-19.2 0,0 -6.4,-15.9 -15.9,-28.7 -9.6,-12.8 -41.6,-47.9 -41.6,-47.9 l -22.4,92.6 -44.7,19.2 h -32 l -41.5,-3.2 -32,-22.4 c 0,0 -35.1,-15.9 16,-44.7 51.2,-28.8 63.9,-35.2 73.5,-38.3 9.6,-3.2 9.6,-3.2 9.6,-3.2 l 35.2,-64 v -22.3 c 0,0 -9.6,-28.8 3.2,-60.7 12.7,-32 35.1,-70.4 35.1,-70.4 0,0 19.2,-25.5 48,-70.3 28.7,-44.7 38.3,-67.1 38.3,-67.1 0,0 3.2,-28.7 16,-70.3 12.8,-41.5 -6.4,-99 -6.4,-99 l -47.9,-102.3 c 0,0 -16,-38.3 -16,-63.9 0,-25.6 -35.2,-95.9 -35.2,-95.9 l -31.9,-25.6 -41.6,-121.4 c 0,0 239.7,89.5 249.3,95.9 9.6,6.4 31.9,19.2 73.5,44.7 41.5,25.6 111.8,86.3 131,105.5 19.2,19.2 57.5,57.5 79.9,79.9 22.4,22.3 89.5,95.9 89.5,95.9 l -12.8,124.6 c 0,0 0,12.8 -25.6,12.8 -25.5,0 -89.5,9.6 -89.5,9.6 l -25.5,12.7"
         style="fill:#000000;fill-opacity:1;fill-rule:nonzero;stroke:none"
         transform="matrix(0.13333333,0,0,-0.13333333,0,5333.3333)" />
      <path
         id="path4"
         d="m 16379.1,17391.9 187.5,98 c 0,0 140.6,46.9 161.9,59.6 21.3,12.8 46.9,8.6 81,42.6 34.1,34.1 -55.4,-34 80.9,64 136.4,98 162,123.5 162,123.5 l 225.8,217.3 v 106.6 c 0,0 -81,76.7 0,140.6 80.9,63.9 102.3,119.3 102.3,119.3 l 59.6,93.7 c 0,0 0,76.7 38.4,98 38.3,21.3 85.2,51.1 85.2,51.1 0,0 29.8,29.9 76.7,34.1 46.8,4.3 68.1,4.3 68.1,4.3 0,0 46.9,-55.4 85.3,-115 38.3,-59.7 68.1,-93.8 68.1,-93.8 l 55.4,-59.6 c 0,0 29.9,-21.3 59.7,-25.6 29.8,-4.3 89.5,25.6 89.5,25.6 0,0 34,34 76.7,38.3 42.6,4.3 80.9,12.8 80.9,12.8 l 72.4,12.8 132.1,4.2 98,8.6 93.8,46.8 63.9,144.9 29.8,174.7 c 0,0 -21.3,59.6 0,68.2 21.3,8.5 85.2,38.3 110.8,55.4 25.6,17 81,59.6 81,59.6 l 72.4,59.7 c 0,0 21.3,17 46.9,42.6 25.5,25.5 46.8,38.3 93.7,38.3 46.9,0 51.1,4.3 102.3,-17 51.1,-21.3 17,-38.4 102.2,-42.6 85.2,-4.3 106.5,17 127.8,21.3 21.4,4.2 42.7,8.5 42.7,8.5 l 217.3,-149.1 89.4,-42.6 c 0,0 -12.7,-4.3 59.7,-8.6 72.4,-4.2 110.8,0 166.2,-21.3 55.4,-21.3 119.3,-89.5 119.3,-89.5 0,0 0,-63.9 -25.6,-102.2 -25.6,-38.4 -51.1,-89.5 -51.1,-89.5 0,0 4.2,-42.6 29.8,-76.7 25.6,-34.1 46.9,-55.4 46.9,-55.4 l 80.9,-51.1 c 0,0 -12.7,-17.1 0,-34.1 12.8,-17 -46.8,-68.2 -46.8,-68.2 0,0 -12.8,-38 -12.8,-57.3 0,-19.4 -12.8,-53.5 12.8,-70.5 25.5,-17 68.1,38.3 25.5,-17 -42.6,-55.4 -153.4,-119.4 -153.4,-119.4 l -108,-59.6 -62.4,-123.6 -59.7,-59.6 c 0,0 -42.6,-17.1 -85.2,-63.9 -42.6,-46.9 -98,-136.4 -115,-191.8 -17.1,-55.4 -25.6,-85.2 -59.7,-136.3 -34.1,-51.2 -80.9,-272.7 -80.9,-272.7 l -264.2,294 -81,63.9 -63.9,80.9 c -51.1,21.4 -136.3,38.4 -136.3,38.4 h -106.5 l -132.1,21.3 -174.7,-68.2 c 0,0 17,17.1 -51.2,-42.6 -68.1,-59.6 -46.8,-59.6 -89.4,-76.7 -42.6,-17 -127.9,-89.5 -170.5,-93.7 -42.6,-4.3 -76.7,29.8 -89.5,-42.6 -12.7,-72.5 -21.3,-76.7 -25.5,-127.9 -4.3,-51.1 -46.9,-123.5 -46.9,-123.5 l -119.3,-127.8 -76.7,-89.5 c 0,0 -25.6,-51.2 -51.1,-76.7 -25.6,-25.6 -85.2,-55.4 -85.2,-55.4 0,0 -59.7,-29.8 -59.7,-76.7 0,-46.9 42.6,-136.4 42.6,-136.4 l -8.5,-72.4 c 0,0 12.8,-38.3 21.3,-85.2 8.5,-46.9 17,-76.7 25.6,-93.7 8.5,-17.1 -29.9,-55.4 -29.9,-55.4 0,0 -115,55.4 -132,55.4 -17.1,0 -46.9,12.7 -85.3,12.7 -38.3,0 -98,0 -98,0 0,0 -29.8,29.9 -89.4,59.7 -59.7,29.8 -110.8,42.6 -110.8,42.6 l 34.1,102.3 c 0,0 106.5,51.1 72.4,93.7 -34.1,42.6 -8.5,42.6 -89.5,46.9 -80.9,4.2 -115,4.2 -115,4.2 0,0 -38.4,-17 -59.7,21.3 -21.3,38.4 -72.4,140.6 -72.4,140.6 l -21.3,81 -4.3,115 c 0,0 85.2,127.9 89.5,157.7 4.3,29.8 -42.6,110.8 -42.6,110.8 l -59.7,42.6 -98,12.8 8.6,161.9 -251.4,-42.6 -204.6,-34.1"
         style="fill:#000000;fill-opacity:1;fill-rule:nonzero;stroke:none"
         transform="matrix(0.13333333,0,0,-0.13333333,0,5333.3333)" />
      <path
         id="path5"
         d="m 28688.9,31844.9 c 0,34 -25.6,264.1 0,264.1 25.5,0 42.6,-25.5 85.2,0 42.6,25.6 204.5,119.3 204.5,119.3 l 68.2,102.3 h 59.6 v -85.2 c 0,0 25.6,42.6 213.1,0 187.5,-42.6 238.6,-68.2 238.6,-68.2 l 110.8,8.5 76.7,144.9 h -51.1 c 0,0 8.5,59.7 -59.7,85.2 -68.2,25.6 -68.2,34.1 -119.3,68.2 -51.1,34.1 -110.8,68.2 -119.3,93.7 -8.5,25.6 -51.1,85.2 -51.1,85.2 0,0 -25.6,85.3 -68.2,102.3 -42.6,17.1 -76.7,68.2 -110.8,68.2 -34.1,0 -127.8,0 -127.8,0 0,0 -110.8,-17.1 -144.9,0 -34.1,17 -59.6,25.6 -93.7,59.6 -34.1,34.1 -108,68.2 -122.2,76.7 -14.2,8.6 -125,102.3 -125,102.3 l -68.1,51.1 v 161.9 136.4 l 59.6,136.3 110.8,59.7 h 170.4 l 119.3,51.1 h 76.7 93.8 l 110.8,-102.2 93.7,-110.8 c 0,0 51.1,-68.2 85.2,-119.3 34.1,-51.2 85.2,-110.8 85.2,-110.8 l 179,34.1 76.7,76.7 119.3,102.2 110.8,42.7 127.8,187.4 c 0,0 51.1,8.6 196,59.7 144.9,51.1 221.6,51.1 221.6,51.1 l 332.3,-93.7 161.9,-136.4 c 0,0 -87.3,-25.6 50.1,-25.6 137.4,0 188.5,-17 188.5,-17 0,0 59.7,-76.7 119.3,-119.3 59.7,-42.6 127.9,-110.8 127.9,-110.8 0,0 25.5,-42.6 153.4,-76.7 127.8,-34.1 178.9,-68.2 178.9,-68.2 l 187.5,-85.2 213,-119.3 136.4,-76.7 c 0,0 170.4,17.1 213,-38.3 42.6,-55.4 102.3,-149.2 127.9,-174.7 25.5,-25.6 136.3,-102.3 136.3,-102.3 l 161.9,213.1 c 0,0 0,196 0,221.5 0,25.6 -8.5,76.7 0,153.4 8.5,76.7 -8.5,119.3 0,170.5 8.5,51.1 119.3,255.6 119.3,255.6 l 358,357.9 c 0,0 298.2,323.9 409,358 110.8,34 196,119.3 238.6,136.3 42.6,17 221.6,34.1 221.6,34.1 0,0 -34.1,51.1 76.7,0 110.7,-51.1 110.7,-51.1 110.7,-51.1 0,0 127.9,-42.6 204.6,-51.2 76.7,-8.5 144.8,-8.5 213,-8.5 68.2,0 127.9,8.5 127.9,8.5 l 8.5,125 h 144.8 c 0,0 34.1,5.7 59.7,0 25.6,-5.7 76.7,2.5 76.7,2.5 h 161.9 c 0,0 51.1,34.4 59.7,68.5 8.5,34.1 0,85.2 0,85.2 l 93.7,68.2 c 0,0 8.5,-34.1 85.2,0 76.7,34.1 -51.1,42.6 144.9,59.7 196,17 298.2,0 298.2,0 l 34.1,127.8 196,85.2 162,59.7 v 85.2 h -162 c 0,0 8.6,76.7 -76.7,0 -85.2,-76.7 -204.5,-179 -204.5,-179 l -76.7,-8.5 c 0,0 -25.5,0 -76.7,0 -51.1,0 -25.5,-68.2 -51.1,0 -25.6,68.2 -25.6,127.8 -25.6,127.8 0,0 -51.1,42.6 -51.1,93.8 0,51.1 -8.5,102.2 -8.5,102.2 l -93.8,68.2 -34.1,119.3 c 0,0 17.1,59.7 -17,102.3 -34.1,42.6 -25.6,17 -76.7,85.2 -51.1,68.2 -51.1,68.2 -51.1,68.2 0,0 -34.1,34.1 -42.6,76.7 -8.5,42.6 -8.5,42.6 -8.5,42.6 0,0 -8.6,76.7 0,119.3 8.5,42.6 42.6,102.2 42.6,102.2 l 76.7,59.7 59.6,93.7 68.2,153.4 c 0,0 -17.1,85.2 25.5,119.3 42.7,34.1 85.3,93.8 85.3,93.8 l 68.1,127.8 -8.5,110.8 h -59.6 l -204.6,-170.4 c 0,0 -59.6,-93.8 -85.2,-110.8 -25.5,-17.1 -102.2,-93.8 -102.2,-93.8 0,0 -34.1,-68.1 -93.8,-110.8 -59.6,-42.6 -110.8,-76.7 -110.8,-76.7 l -144.8,-85.2 -119.3,-76.7 c 0,0 8.5,-17 -85.3,-17 -93.7,0 -238.6,8.5 -238.6,8.5 l -161.9,25.6 -187.5,178.9 -59.6,110.8 c 0,0 17,-25.5 -153.4,0 -170.4,25.6 -213,34.1 -247.1,51.1 -34.1,17.1 17,17.1 -127.9,68.2 -144.8,51.2 -161.9,85.2 -247.1,110.8 -85.2,25.6 -102.3,25.6 -144.9,34.1 -42.6,8.5 -144.8,17 -213,51.1 -68.2,34.1 -238.6,161.9 -255.7,187.5 -17,25.6 -93.7,102.3 -93.7,102.3 0,0 -85.2,68.1 -204.5,127.8 -119.3,59.6 -179,102.3 -213.1,127.8 -34.1,25.6 8.6,-76.7 -144.8,136.4 -153.4,213 -383.5,434.6 -383.5,434.6 l -187.5,272.7 -213.1,204.5 -195.9,187.5 -231.2,298.2 c 0,0 -126.8,119.3 -177.9,119.3 -51.1,0 -68.2,-59.6 -68.2,-59.6 0,0 8.6,-51.1 -8.5,-76.7 -17,-25.6 -42.6,-17.1 -68.2,-34.1 -25.5,-17 -85.2,-25.6 -85.2,-25.6 0,0 -34.1,-17 -68.2,-8.5 -34,8.5 -93.7,76.7 -93.7,76.7 0,0 -42.6,-34.1 -42.6,-59.6 0,-25.6 51.1,-68.2 34.1,-110.8 -17.1,-42.6 -76.7,-119.3 -76.7,-119.3 0,0 -17.1,34.1 -34.1,-68.2 -17,-102.3 76.7,-340.9 76.7,-340.9 l 161.9,-247.1 42.6,-332.3 51.1,-204.6 -76.7,-255.6 -127.8,-221.6 8.5,-255.6 v -289.8 l -59.6,-187.5 -144.9,-127.8 -187.5,-68.2 -59.6,-119.3 c 0,0 -17.1,8.5 -17.1,-51.1 0,-59.7 0,-119.3 0,-119.3 l 34.1,-136.4 v -72.4 l -34.1,-46.9 119.4,-281.2 -85.3,-161.9 c 0,0 -25.5,-68.2 -76.7,-93.7 -51.1,-25.6 -119.3,-51.2 -119.3,-51.2 l -161.9,-25.5 -68.2,-8.6 -93.7,59.7 -17,85.2 -298.3,-85.2 c 0,0 -51.1,68.2 -85.2,76.7 -34.1,8.5 -76.7,17 -110.8,42.6 -34.1,25.6 -102.3,76.7 -136.4,93.7 -34,17.1 -34,17.1 -34,17.1 0,0 -59.7,127.8 -144.9,110.8 -85.2,-17.1 -153.4,-110.8 -153.4,-110.8 l -34.1,-136.4 -25.6,-85.2 85.3,-93.7 102.2,-85.2 76.7,-76.7 c -17,-85.3 -68.2,-136.4 -68.2,-136.4 0,0 -34,-25.5 -59.6,-68.2 -25.6,-42.6 -102.3,-136.3 -102.3,-136.3 l -34.1,-136.4 -34,-51.1 -85.3,102.3 h -93.7 c 0,0 -42.6,-59.7 -68.2,-85.2 -25.5,-25.6 -76.7,-85.3 -102.2,-110.8 -25.6,-25.6 -68.2,-34.1 -68.2,-34.1 0,0 0,-8.5 -59.7,-17.1 -59.6,-8.5 -102.2,0 -136.3,-17 -34.1,-17 -76.7,-8.5 -76.7,-179 0,-170.4 0,-315.3 0,-315.3 0,0 34.1,-34.1 0,-93.7 -34.1,-59.7 -59.7,-136.4 -59.7,-136.4 l 59.7,-34 c 0,0 25.6,8.5 68.2,-42.7 42.6,-51.1 42.6,-93.7 68.1,-110.7 25.6,-17.1 68.2,-25.6 68.2,-25.6 l 119.3,-85.2 c 0,0 0,8.5 42.6,-68.2 42.6,-76.7 76.7,-127.8 93.8,-153.4 17,-25.5 -42.6,-161.9 -42.6,-161.9 l -51.2,-204.5 -102.2,-196 c 0,0 -8.6,-25.6 0,-76.7 8.5,-51.2 8.5,-76.7 34.1,-127.8 25.5,-51.2 25.5,-51.2 25.5,-51.2 0,0 8.5,-42.6 25.6,-76.7 17,-34.1 51.1,-59.6 85.2,-59.6 34.1,0 68.2,0 68.2,0 0,0 59.6,25.5 93.7,0 34.1,-25.6 59.7,0 59.7,0 l 42.6,127.8 h 51.1 l 68.2,8.5 76.7,93.8"
         style="fill:#000000;fill-opacity:1;fill-rule:nonzero;stroke:none"
         transform="matrix(0.13333333,0,0,-0.13333333,0,5333.3333)" />
      <path
         id="path6"
         d="m 29623.1,38746.4 c 0,0 -54.3,11.2 -68.7,-11.1 -14.4,-22.4 -28.8,-132.7 -28.8,-132.7 l 44.7,-159.7 75.1,36.7 12.8,150.2 -35.1,116.6"
         style="fill:#000000;fill-opacity:1;fill-rule:nonzero;stroke:none"
         transform="matrix(0.13333333,0,0,-0.13333333,0,5333.3333)" />
      <path
         id="path7"
         d="m 29862.8,38378.9 h -35.2 c 0,0 -78.3,-35.1 -81.5,-51.1 -3.2,-16 -20.8,-71.9 -20.8,-71.9 0,0 38.4,-36.7 67.1,-54.3 28.8,-17.6 111.9,-75.1 111.9,-75.1 l 94.3,78.3 -16,68.7 -76.7,65.5 -43.1,39.9"
         style="fill:#000000;fill-opacity:1;fill-rule:nonzero;stroke:none"
         transform="matrix(0.13333333,0,0,-0.13333333,0,5333.3333)" />
      <path
         id="path8"
         d="m 30140.8,36995.2 v -63.9 h 22.4 l 19.1,32 -41.5,31.9"
         style="fill:#000000;fill-opacity:1;fill-rule:nonzero;stroke:none"
         transform="matrix(0.13333333,0,0,-0.13333333,0,5333.3333)" />
      <path
         id="path9"
         d="m 30017.7,36963.3 c -21.5,5.6 -39.1,5.6 -49.5,-14.4 -10.4,-20 -17.6,-30.4 -4,-32.8 13.6,-2.4 18.4,-22.3 36.8,-5.6 18.3,16.8 16.7,52.8 16.7,52.8"
         style="fill:#000000;fill-opacity:1;fill-rule:nonzero;stroke:none"
         transform="matrix(0.13333333,0,0,-0.13333333,0,5333.3333)" />
      <path
         id="path10"
         d="m 27328.6,32820.1 c 4.8,9.6 14.4,59.1 38.3,95.8 24,36.8 32,51.2 32,51.2 0,0 46.3,49.5 27.2,59.1 -19.2,9.6 -11.2,17.6 -41.6,17.6 -30.4,0 -46.3,3.2 -73.5,-3.2 -27.2,-6.4 -57.5,-12.8 -57.5,-12.8 l -38.4,-33.6 c 0,0 -15.9,0 -17.5,-65.5 -1.6,-65.5 -11.2,-71.9 -1.6,-124.6 9.6,-52.7 70.3,-84.7 70.3,-84.7 0,0 22.3,-4.8 30.3,12.8 8,17.6 32,87.9 32,87.9"
         style="fill:#000000;fill-opacity:1;fill-rule:nonzero;stroke:none"
         transform="matrix(0.13333333,0,0,-0.13333333,0,5333.3333)" />
      <path
         id="path11"
         d="m 27127.3,31802.3 c -8.6,-2.2 -32,0 -32,0 l 4.3,-44.8 c 0,0 10.6,-12.8 27.7,-4.2 17,8.5 0,49 0,49"
         style="fill:#000000;fill-opacity:1;fill-rule:nonzero;stroke:none"
         transform="matrix(0.13333333,0,0,-0.13333333,0,5333.3333)" />
      <path
         id="path12"
         d="m 27798.3,31533.8 c -19.1,2.1 -38.3,14.9 -42.6,0 -4.2,-14.9 -8.5,-36.2 4.3,-40.5 12.8,-4.2 27.7,0 27.7,0 h 10.6 v 40.5"
         style="fill:#000000;fill-opacity:1;fill-rule:nonzero;stroke:none"
         transform="matrix(0.13333333,0,0,-0.13333333,0,5333.3333)" />
      <path
         id="path13"
         d="m 26933.9,26353.6 -38.3,-35.1 c 0,0 -20.8,-25.6 -8,-30.4 12.8,-4.8 52.7,9.6 60.7,12.8 8,3.2 -14.4,52.7 -14.4,52.7"
         style="fill:#000000;fill-opacity:1;fill-rule:nonzero;stroke:none"
         transform="matrix(0.13333333,0,0,-0.13333333,0,5333.3333)" />
      <path
         id="path14"
         d="m 25448.5,25683.6 c 17,12.8 53.2,72.4 74.5,95.9 21.3,23.4 44.8,91.6 68.2,121.4 23.4,29.8 36.2,53.3 36.2,53.3 l 74.6,63.9 66,100.1 c 0,0 21.3,17.1 36.2,19.2 15,2.1 64,-44.8 64,-44.8 v -95.8 l -46.9,-95.9 c 0,0 -49,-83.1 -55.4,-108.6 -6.4,-25.6 -27.7,-29.9 -6.4,-55.4 21.3,-25.6 40.5,-53.3 40.5,-53.3 h 76.7 l 51.1,10.7 c 0,0 6.4,-27.7 2.2,-64 -4.3,-36.2 -2.2,-57.5 -38.4,-100.1 -36.2,-42.6 -68.2,-61.8 -68.2,-61.8 l -44.7,-85.2 c 0,0 -106.5,-72.4 -116.1,-76.7 -9.6,-4.2 -45.8,-23.4 -86.3,-38.3 -40.5,-15 -55.4,-15 -78.8,-15 -23.5,0 -38.4,27.7 -38.4,27.7 l 76.7,74.6 49,61.8 4.3,68.2 c 0,0 27.7,38.3 8.5,49 -19.2,10.6 -49,10.6 -49,10.6 l -46.9,-21.3 -25.5,23.5 -10.7,72.4 -17,63.9"
         style="fill:#000000;fill-opacity:1;fill-rule:nonzero;stroke:none"
         transform="matrix(0.13333333,0,0,-0.13333333,0,5333.3333)" />
      <path
         id="path15"
         d="m 18170.8,22330.3 c 19.2,8.5 113,66 132.1,78.8 19.2,12.8 32,68.2 32,68.2 l -63.9,49 -81,53.2 c 0,0 -44.7,19.2 -63.9,17.1 -19.2,-2.2 -57.5,-12.8 -72.4,-38.4 -14.9,-25.5 -21.3,-12.8 -27.7,-40.4 -6.4,-27.7 -14.9,-66.1 -14.9,-66.1 l 49,-91.6 c 0,0 23.4,-27.7 44.7,-29.8 21.3,-2.2 66,0 66,0"
         style="fill:#000000;fill-opacity:1;fill-rule:nonzero;stroke:none"
         transform="matrix(0.13333333,0,0,-0.13333333,0,5333.3333)" />
      <path
         id="path16"
         d="m 17819.3,22023.5 c 14.9,6.4 83.1,72.4 83.1,72.4 0,0 59.7,74.6 36.2,98 -23.4,23.5 -119.3,74.6 -119.3,74.6 0,0 -108.6,-40.5 -115,-42.6 -6.4,-2.2 -21.3,-44.8 -21.3,-44.8 0,0 31.9,-63.9 49,-76.7 17,-12.7 87.3,-80.9 87.3,-80.9"
         style="fill:#000000;fill-opacity:1;fill-rule:nonzero;stroke:none"
         transform="matrix(0.13333333,0,0,-0.13333333,0,5333.3333)" />
      <path
         id="path17"
         d="m 12212,18678.7 c 0,6.4 91.6,108.6 100.1,155.5 8.5,46.9 -17,51.1 0,104.4 17.1,53.3 19.2,51.1 51.1,117.2 32,66 53.3,115 53.3,115 l 2.1,59.7 70.3,134.2 c 0,0 12.8,25.6 21.3,80.9 8.6,55.4 4.3,159.8 4.3,159.8 l 8.5,119.3 h -89.5 l -102.2,-123.5 c 0,0 -19.2,2.1 -19.2,-63.9 0,-66.1 0,-66.1 -6.4,-125.7 -6.4,-59.7 0,-68.2 -10.6,-98 -10.7,-29.9 -34.1,-61.8 -34.1,-61.8 0,0 4.2,-59.7 0,-87.4 -4.3,-27.7 -14.9,-49 -29.8,-70.3 -15,-21.3 -74.6,-61.8 -81,-68.2 -6.4,-6.3 -34.1,-95.8 -34.1,-95.8 0,0 -29.8,-76.7 -21.3,-132.1 8.5,-55.4 27.7,-136.4 27.7,-136.4 l 10.7,-34.1 78.8,51.2"
         style="fill:#000000;fill-opacity:1;fill-rule:nonzero;stroke:none"
         transform="matrix(0.13333333,0,0,-0.13333333,0,5333.3333)" />
      <path
         id="path18"
         d="m 12866,18203.6 c -4.2,-6.4 -53.2,-46.9 -53.2,-46.9 l 53.2,-202.4 c 0,0 68.2,27.7 72.5,36.2 4.2,8.6 29.8,72.5 29.8,72.5 l -23.4,87.3 -78.9,53.3"
         style="fill:#000000;fill-opacity:1;fill-rule:nonzero;stroke:none"
         transform="matrix(0.13333333,0,0,-0.13333333,0,5333.3333)" />
      <path
         id="path19"
         d="m 12026.6,17223.6 c -6.4,2.1 -34.1,-32 -34.1,-32 0,0 -34,-17 0,-25.5 34.1,-8.6 51.2,0 51.2,0 l -17.1,57.5"
         style="fill:#000000;fill-opacity:1;fill-rule:nonzero;stroke:none"
         transform="matrix(0.13333333,0,0,-0.13333333,0,5333.3333)" />
      <path
         id="path20"
         d="m 11370.5,16303.2 c -21.3,0 -87.4,21.3 -106.6,0 -19.1,-21.3 -31.9,-29.8 -42.6,-40.4 -10.6,-10.7 -17,-59.7 -17,-59.7 l 10.6,-119.3 c 0,0 140.6,-136.4 155.6,-136.4 14.9,0 91.6,0 91.6,0 l 89.4,29.9 76.7,119.3 -27.7,101.6 36.3,56 98,12.8 57.5,14.9 70.3,93.8 85.2,112.9 c 0,0 121.4,74.5 134.2,106.5 12.8,32 83.1,2.1 12.8,61.8 -70.3,59.6 -98,74.6 -98,74.6 l 13.7,149.1 9.7,196 -106.5,29.8 c 0,0 -38.3,-14.9 -17,-72.4 21.3,-57.5 44.7,-53.3 25.5,-134.2 -19.1,-81 -25.5,-130 -53.2,-181.1 -27.7,-51.2 -25.6,-87.4 -102.3,-153.4 -76.7,-66.1 -95.9,-61.8 -123.5,-95.9 -27.7,-34.1 -51.2,-61.8 -78.9,-95.9 -27.7,-34.1 -23.4,-42.8 -70.3,-60.8 -46.8,-18 -123.5,-9.5 -123.5,-9.5"
         style="fill:#000000;fill-opacity:1;fill-rule:nonzero;stroke:none"
         transform="matrix(0.13333333,0,0,-0.13333333,0,5333.3333)" />
      <path
         id="path21"
         d="m 13925.9,15849.4 c -38.3,-4.7 -97.4,-14.3 -97.4,-14.3 l -57.6,-35.2 -89.4,-27.2 -19.2,-57.5 c 0,0 36.7,-41.5 70.3,-49.5 33.5,-8 78.3,-8 78.3,-8 l 68.7,1.6 c 0,0 44.7,16 46.3,59.1 1.6,43.2 0,131 0,131"
         style="fill:#000000;fill-opacity:1;fill-rule:nonzero;stroke:none"
         transform="matrix(0.13333333,0,0,-0.13333333,0,5333.3333)" />
      <path
         id="path22"
         d="m 13585.6,15870.2 c -30.4,14.4 -70.3,20.8 -70.3,20.8 l -175.8,-65.5 c 0,0 -68.7,-60.7 -75.1,-155 -6.4,-94.3 32,-175.8 32,-175.8 0,0 0,-89.5 9.6,-113.4 9.6,-24 -75.1,-38.4 17.5,-38.4 92.7,0 199.8,132.6 231.7,153.4 32,20.8 30.4,73.5 30.4,73.5 l 22.4,134.2 -19.2,156.6 -3.2,9.6"
         style="fill:#000000;fill-opacity:1;fill-rule:nonzero;stroke:none"
         transform="matrix(0.13333333,0,0,-0.13333333,0,5333.3333)" />
      <path
         id="path23"
         d="m 13823.7,15542.7 c -9.6,0 -29.2,-6.4 -29.2,-6.4 0,0 -11.7,-49.6 0,-54.4 11.6,-4.7 22.8,-20.7 38.8,-3.1 15.9,17.5 19.1,30.3 19.1,30.3 l -28.7,33.6"
         style="fill:#000000;fill-opacity:1;fill-rule:nonzero;stroke:none"
         transform="matrix(0.13333333,0,0,-0.13333333,0,5333.3333)" />
      <path
         id="path24"
         d="m 13686.3,15480.3 c -17.6,-1.6 -30.4,12.7 -41.6,-9.6 -11.2,-22.3 -16,-67 -16,-67 0,0 22.4,-28.8 57.6,-4.8 35.1,23.9 0,81.4 0,81.4"
         style="fill:#000000;fill-opacity:1;fill-rule:nonzero;stroke:none"
         transform="matrix(0.13333333,0,0,-0.13333333,0,5333.3333)" />
      <path
         id="path25"
         d="m 10930.5,15048.4 c -19.2,-1.1 -51.1,-8.5 -40.5,-24.5 10.7,-16 21.3,-20.2 21.3,-20.2 0,0 57.6,13.8 58.6,18.1 1.1,4.2 -39.4,26.6 -39.4,26.6"
         style="fill:#000000;fill-opacity:1;fill-rule:nonzero;stroke:none"
         transform="matrix(0.13333333,0,0,-0.13333333,0,5333.3333)" />
      <path
         id="path26"
         d="m 13201.6,14644.7 c -16,31.9 -37.3,54.3 -37.3,54.3 0,0 -40.5,38.4 -62.9,10.7 -22.3,-27.7 -49,-37.3 -19.1,-57.6 29.8,-20.2 53.2,-37.2 53.2,-37.2 l 56.5,8.5 9.6,21.3"
         style="fill:#000000;fill-opacity:1;fill-rule:nonzero;stroke:none"
         transform="matrix(0.13333333,0,0,-0.13333333,0,5333.3333)" />
      <path
         id="path27"
         d="m 13029,14595.7 c -2.1,-3.2 10.7,30.9 -24.5,-26.7 -35.1,-57.5 -80.9,-105.4 -98,-150.1 -17,-44.8 -42.6,-94.9 -42.6,-94.9 0,0 -38.3,-28.7 -5.3,-34 33,-5.4 15.9,-34.1 53.2,9.5 37.3,43.7 86.3,141.7 93.8,153.4 7.4,11.8 23.4,142.8 23.4,142.8"
         style="fill:#000000;fill-opacity:1;fill-rule:nonzero;stroke:none"
         transform="matrix(0.13333333,0,0,-0.13333333,0,5333.3333)" />
      <path
         id="path28"
         d="m 12571,13588.5 c 0,0 -40,-3.2 -35.2,-38.3 4.8,-35.2 35.2,-28.8 35.2,-28.8 l 17.5,38.3 -17.5,28.8"
         style="fill:#000000;fill-opacity:1;fill-rule:nonzero;stroke:none"
         transform="matrix(0.13333333,0,0,-0.13333333,0,5333.3333)" />
      <path
         id="path29"
         d="m 12194.9,16745.3 c -3.2,0 -6.4,21.3 -13.8,-8.5 -7.5,-29.8 13.8,-34.1 13.8,-34.1 l 9.6,17 -9.6,25.6"
         style="fill:#000000;fill-opacity:1;fill-rule:nonzero;stroke:none"
         transform="matrix(0.13333333,0,0,-0.13333333,0,5333.3333)" />
      <path
         id="path30"
         d="m 12372.8,16740 c -9.6,0 -44.7,7.4 -47.9,0 -3.2,-7.5 -41.5,-40.5 -2.1,-37.3 39.4,3.2 44.7,6.4 44.7,6.4 l 5.3,30.9"
         style="fill:#000000;fill-opacity:1;fill-rule:nonzero;stroke:none"
         transform="matrix(0.13333333,0,0,-0.13333333,0,5333.3333)" />
      <path
         id="path31"
         d="m 12655.1,16952 c -9.6,5.3 -35.1,11.7 -35.1,11.7 0,0 -28.8,-16 -12.8,-20.3 16,-4.2 28.7,-5.3 28.7,-5.3 l 19.2,13.9"
         style="fill:#000000;fill-opacity:1;fill-rule:nonzero;stroke:none"
         transform="matrix(0.13333333,0,0,-0.13333333,0,5333.3333)" />
      <path
         id="path32"
         d="m 12684.9,16781.5 -39.4,-28.8 c 0,0 -42.6,-64.9 0,-56.4 42.6,8.5 79.9,-12.9 79.9,31.4 0,44.2 -40.5,53.8 -40.5,53.8"
         style="fill:#000000;fill-opacity:1;fill-rule:nonzero;stroke:none"
         transform="matrix(0.13333333,0,0,-0.13333333,0,5333.3333)" />
      <path
         id="path33"
         d="m 13101.4,17793.5 c -7.4,0 -23.4,10.6 -21.3,-6.4 2.2,-17.1 9.6,-22.4 21.3,-21.3 11.8,1 11.8,21.3 11.8,21.3 l -11.8,6.4"
         style="fill:#000000;fill-opacity:1;fill-rule:nonzero;stroke:none"
         transform="matrix(0.13333333,0,0,-0.13333333,0,5333.3333)" />
      <path
         id="path34"
         d="m 12947,17727.4 c -3.2,0 -13.9,-11.7 -9.6,-14.9 4.3,-3.2 11.7,-9.6 22.4,0 10.6,9.6 8.5,14.9 8.5,14.9 h -21.3"
         style="fill:#000000;fill-opacity:1;fill-rule:nonzero;stroke:none"
         transform="matrix(0.13333333,0,0,-0.13333333,0,5333.3333)" />
      <path
         id="path35"
         d="m 13871.6,18087.5 c 0,0 -14.9,-9.6 -13.8,-14.9 1,-5.4 13.8,-7.5 13.8,-7.5 l 13.8,13.9 -13.8,8.5"
         style="fill:#000000;fill-opacity:1;fill-rule:nonzero;stroke:none"
         transform="matrix(0.13333333,0,0,-0.13333333,0,5333.3333)" />
      <path
         id="path36"
         d="m 14460.7,18661.6 c 0,0 -59.7,-25.5 -20.3,-29.8 39.4,-4.2 41.6,-2.1 41.6,-2.1 l -21.3,31.9"
         style="fill:#000000;fill-opacity:1;fill-rule:nonzero;stroke:none"
         transform="matrix(0.13333333,0,0,-0.13333333,0,5333.3333)" />
      <path
         id="path37"
         d="m 15202.6,19385.5 c -37.5,-37.6 -80.7,-41.6 -37.5,-37.6 43.1,4 51.9,8 51.9,8 l -14.4,29.6"
         style="fill:#000000;fill-opacity:1;fill-rule:nonzero;stroke:none"
         transform="matrix(0.13333333,0,0,-0.13333333,0,5333.3333)" />
      <path
         id="path38"
         d="m 13223.9,12905.2 c 0,0 -46.8,27.7 -53.2,0 -6.4,-27.7 -17.1,-42.6 8.5,-44.8 25.6,-2.1 44.7,6.4 44.7,6.4 v 38.4"
         style="fill:#000000;fill-opacity:1;fill-rule:nonzero;stroke:none"
         transform="matrix(0.13333333,0,0,-0.13333333,0,5333.3333)" />
      <path
         id="path39"
         d="m 13737.4,12839.1 c -8.5,0 -25.6,-17 -25.6,-17 l 14.9,-23.5 46.9,10.7 -36.2,29.8"
         style="fill:#000000;fill-opacity:1;fill-rule:nonzero;stroke:none"
         transform="matrix(0.13333333,0,0,-0.13333333,0,5333.3333)" />
      <path
         id="path40"
         d="m 13933.4,12860.1 -23.4,-21 23.4,-20.2 z"
         style="fill:#000000;fill-opacity:1;fill-rule:nonzero;stroke:none"
         transform="matrix(0.13333333,0,0,-0.13333333,0,5333.3333)" />
      <path
         id="path41"
         d="m 14571.5,12746.4 c 0,0 12.7,-3.1 0,-19.1 -12.8,-16 -12.8,-16 -12.8,-16 l 12.8,35.1"
         style="fill:#000000;fill-opacity:1;fill-rule:nonzero;stroke:none"
         transform="matrix(0.13333333,0,0,-0.13333333,0,5333.3333)" />
      <path
         id="path42"
         d="m 14834.6,12818.9 -66.1,-120.4 -44.7,-119.3 c 0,0 -10.7,49 -21.3,-42.6 -10.7,-91.6 -21.3,-138.5 -21.3,-138.5 0,0 -14.9,-31.9 -42.6,-85.2 -27.7,-53.3 -59,-68.2 -61.5,-98 -2.4,-29.8 -20.2,-57.5 -9.2,-104.4 11,-46.9 -25.2,-76.7 30.2,-83.1 55.4,-6.4 123.6,70.3 123.6,89.5 0,19.2 25.5,110.8 29.8,127.8 4.2,17.1 -23.5,29.9 4.2,81 27.7,51.1 6.4,0 55.4,106.5 49,106.5 55.4,132.1 55.4,132.1 0,0 19.2,133.1 21.3,164.6 2.2,31.4 -53.2,90 -53.2,90"
         style="fill:#000000;fill-opacity:1;fill-rule:nonzero;stroke:none"
         transform="matrix(0.13333333,0,0,-0.13333333,0,5333.3333)" />
      <path
         id="path43"
         d="m 14157.1,12176.6 c -6.4,6.3 -66.1,19.1 -66.1,19.1 0,0 -112.9,-23.4 -138.4,-44.7 -25.6,-21.3 -117.2,-95.9 -108.7,-112.9 8.5,-17.1 53.3,-108.7 53.3,-108.7 l 80.9,-87.3 c 0,0 34.1,-25.6 108.7,-14.9 74.5,10.6 100.1,-21.3 132.1,29.8 31.9,51.1 68.1,76.7 68.1,76.7 l 21.3,74.5 -29.8,81 -121.4,87.4"
         style="fill:#000000;fill-opacity:1;fill-rule:nonzero;stroke:none"
         transform="matrix(0.13333333,0,0,-0.13333333,0,5333.3333)" />
      <path
         id="path44"
         d="m 13586.1,12291.6 c 0,0 -98,46.9 -49,-29.8 49,-76.7 85.2,-87.4 85.2,-87.4 l 55.4,-2.1 c 0,0 100.2,-4.3 46.9,34.1 -53.3,38.3 -138.5,85.2 -138.5,85.2"
         style="fill:#000000;fill-opacity:1;fill-rule:nonzero;stroke:none"
         transform="matrix(0.13333333,0,0,-0.13333333,0,5333.3333)" />
      <path
         id="path45"
         d="m 13164.3,11388.3 c -6.4,0 -17.1,-4.3 -17.1,-25.6 0,-21.3 17.1,-34.1 17.1,-34.1 l 42.6,-2.1 -42.6,61.8"
         style="fill:#000000;fill-opacity:1;fill-rule:nonzero;stroke:none"
         transform="matrix(0.13333333,0,0,-0.13333333,0,5333.3333)" />
      <path
         id="path46"
         d="m 12623.2,11254.1 c -8.6,0 -27.7,19.1 -32,0 -4.3,-19.2 -4.3,-42.6 -4.3,-42.6 l 51.2,-10.7 -14.9,53.3"
         style="fill:#000000;fill-opacity:1;fill-rule:nonzero;stroke:none"
         transform="matrix(0.13333333,0,0,-0.13333333,0,5333.3333)" />
      <path
         id="path47"
         d="m 13111,11164.6 c -10.6,6.4 -29.8,8.5 -36.2,0 -6.4,-8.5 -8.5,-66.1 -8.5,-66.1 l 68.2,-21.3 12.7,36.3 -36.2,51.1"
         style="fill:#000000;fill-opacity:1;fill-rule:nonzero;stroke:none"
         transform="matrix(0.13333333,0,0,-0.13333333,0,5333.3333)" />
      <path
         id="path48"
         d="m 12586.9,10859.9 c -38.3,-12.7 -29.8,-27.7 -12.7,-53.2 17,-25.6 38.3,17 38.3,17 l -25.6,36.2"
         style="fill:#000000;fill-opacity:1;fill-rule:nonzero;stroke:none"
         transform="matrix(0.13333333,0,0,-0.13333333,0,5333.3333)" />
      <path
         id="path49"
         d="m 12844.7,10798.5 -14.9,-38.7 14.9,-53.3 51.2,10.7 c 0,0 36.2,44.7 23.4,66 -12.8,21.3 -74.6,15.3 -74.6,15.3"
         style="fill:#000000;fill-opacity:1;fill-rule:nonzero;stroke:none"
         transform="matrix(0.13333333,0,0,-0.13333333,0,5333.3333)" />
      <path
         id="path50"
         d="m 12689.2,10463.7 -29.8,-46.9 29.8,-23.4 38.4,23.4 -38.4,46.9"
         style="fill:#000000;fill-opacity:1;fill-rule:nonzero;stroke:none"
         transform="matrix(0.13333333,0,0,-0.13333333,0,5333.3333)" />
      <path
         id="path51"
         d="m 12299.3,10031.2 c -12.8,0 -49,27.7 -49,0 0,-27.7 -6.4,-46.9 23.5,-40.5 29.8,6.4 25.5,40.5 25.5,40.5"
         style="fill:#000000;fill-opacity:1;fill-rule:nonzero;stroke:none"
         transform="matrix(0.13333333,0,0,-0.13333333,0,5333.3333)" />
      <path
         id="path52"
         d="m 12114,9916.1 h -40.5 l 29.8,-70.3 40.5,36.3 -29.8,34"
         style="fill:#000000;fill-opacity:1;fill-rule:nonzero;stroke:none"
         transform="matrix(0.13333333,0,0,-0.13333333,0,5333.3333)" />
      <path
         id="path53"
         d="m 11790.2,9323.9 c 0,0 -32,-17.1 -36.3,-29.8 -4.2,-12.8 -19.1,-34.1 -8.5,-40.5 10.7,-6.4 44.8,27.7 44.8,27.7 v 42.6"
         style="fill:#000000;fill-opacity:1;fill-rule:nonzero;stroke:none"
         transform="matrix(0.13333333,0,0,-0.13333333,0,5333.3333)" />
      <path
         id="path54"
         d="m 13334.7,8522.8 c -10.6,0 -115,-29.8 -115,-29.8 l -23.4,-132.1 44.7,-4.2 63.9,23.4 42.6,74.6 -12.8,68.1"
         style="fill:#000000;fill-opacity:1;fill-rule:nonzero;stroke:none"
         transform="matrix(0.13333333,0,0,-0.13333333,0,5333.3333)" />
      <path
         id="path55"
         d="m 12827.7,8784.9 c -12.8,-6.4 -44.8,-42.6 -57.5,-70.3 -12.8,-27.7 -51.2,-53.3 -51.2,-53.3 l -87.3,32 c 0,0 -83.1,-132.1 -104.4,-147 -21.3,-14.9 -53.3,-36.2 -53.3,-36.2 l -127.8,-53.3 -91.6,-32 -63.9,-49 c 0,0 -40.5,-27.7 -70.3,-36.2 -29.9,-8.5 -59.7,-19.2 -59.7,-31.9 0,-12.8 -17,-44.8 0,-91.7 17.1,-46.8 46.9,-110.7 46.9,-110.7 l 29.8,-53.3 -70.3,-98 c 0,0 -100.1,-17 -8.5,-57.5 91.6,-40.5 112.9,-72.5 189.6,0 76.7,72.4 89.5,59.6 112.9,91.6 23.4,32 17.1,-17.1 46.9,57.5 29.8,74.6 51.1,130 51.1,130 l 42.6,117.1 c 0,0 -74.5,-26.1 2.2,26.4 76.7,52.5 98,63.1 123.5,90.8 25.6,27.7 85.2,100.2 85.2,100.2 0,0 44.8,72.4 85.3,78.8 40.4,6.4 74.5,44.7 85.2,55.4 10.6,10.6 10.6,70.3 6.4,83.1 -4.3,12.7 -61.8,57.5 -61.8,57.5"
         style="fill:#000000;fill-opacity:1;fill-rule:nonzero;stroke:none"
         transform="matrix(0.13333333,0,0,-0.13333333,0,5333.3333)" />
      <path
         id="path56"
         d="m 10690.8,7655.7 c -14.9,0 -49,-8.5 -51.1,-19.1 -2.1,-10.7 19.2,-44.8 19.2,-44.8 l 31.9,63.9"
         style="fill:#000000;fill-opacity:1;fill-rule:nonzero;stroke:none"
         transform="matrix(0.13333333,0,0,-0.13333333,0,5333.3333)" />
      <path
         id="path57"
         d="m 11768.8,7655.7 c -44.7,6.4 -57.5,2.2 -63.9,0 -6.4,-2.1 -59.6,-63.9 -59.6,-63.9 l 21.3,-72.4 c 0,0 14.9,-21.3 8.5,-61.8 -6.4,-40.5 -17,-53.3 -10.6,-85.2 6.3,-32 42.6,-74.6 42.6,-74.6 h 36.2 c 0,0 34.1,-25.5 59.6,0 25.6,25.6 36.3,21.3 57.6,55.4 21.3,34.1 19.1,63.9 19.1,63.9 0,0 6.4,38.4 -38.3,76.7 -44.8,38.4 -46.9,63.9 -46.9,63.9 l -25.6,98"
         style="fill:#000000;fill-opacity:1;fill-rule:nonzero;stroke:none"
         transform="matrix(0.13333333,0,0,-0.13333333,0,5333.3333)" />
      <path
         id="path58"
         d="m 11368.3,6876 c -6.4,0 -29.8,-10.7 -78.8,-38.4 -49,-27.6 -74.6,-31.9 -74.6,-31.9 l -61.8,-19.2 -36.2,-44.7 c 0,0 23.5,-46.9 36.2,-53.3 12.8,-6.4 25.6,-10.6 25.6,-10.6 l 159.8,68.1 66,83.1 -36.2,46.9"
         style="fill:#000000;fill-opacity:1;fill-rule:nonzero;stroke:none"
         transform="matrix(0.13333333,0,0,-0.13333333,0,5333.3333)" />
      <path
         id="path59"
         d="m 10379.8,6285.9 c -10.7,-3.2 -67.1,-38.4 -81,-59.7 -13.8,-21.3 -70.3,-84.1 -70.3,-84.1 l -8.5,-38.4 18.1,-57.5 2.2,-55.4 c 0,0 -8.6,4.2 -4.3,-37.3 4.3,-41.5 19.2,-60.7 19.2,-60.7 l 52.2,3.2 c 0,0 20.2,35.1 18.1,75.6 -2.2,40.5 27.7,104.4 27.7,104.4 0,0 5.3,23.4 30.9,59.7 25.5,36.2 51.1,78.8 51.1,78.8 l 14.9,57.5 -70.3,13.9"
         style="fill:#000000;fill-opacity:1;fill-rule:nonzero;stroke:none"
         transform="matrix(0.13333333,0,0,-0.13333333,0,5333.3333)" />
      <path
         id="path60"
         d="m 10724.9,5849.1 c 0,0 14.9,0 0,-40.5 -14.9,-40.4 -23.4,-44.7 -34.1,-61.7 -10.6,-17.1 -27.7,-38.4 -46.8,-59.7 -19.2,-21.3 -40.5,-23.4 -55.4,-44.7 -14.9,-21.3 -17.1,-23.5 -40.5,-61.8 -23.4,-38.4 -46.9,-61.8 -59.6,-76.7 -12.8,-14.9 -10.7,-27.7 -38.4,-27.7 -27.7,0 -14.9,-36.2 -44.7,0 -29.9,36.2 -42.6,61.8 -42.6,61.8 0,0 0,34.1 -64,34.1 -63.9,0 -78.8,0 -78.8,0 0,0 -19.2,2.1 -40.5,-32 -21.3,-34.1 -38.3,-76.7 -29.8,-89.5 8.5,-12.8 -14.9,-2.1 25.6,-42.6 40.5,-40.5 61.8,-59.6 61.8,-59.6 l 42.6,-2.2 c 0,0 27.7,-44.7 21.3,-51.1 -6.4,-6.4 -53.3,-44.7 -70.3,-49 -17.1,-4.3 -14.9,8.5 -46.9,-10.7 -32,-19.1 -49,-12.7 -59.7,-29.8 -10.6,-17 -46.8,-46.8 -46.8,-46.8 l -29.9,-27.7 -78.78,-17.1 -40.48,-63.9 c 0,0 34.09,-95.9 44.74,-130 10.65,-34 4.26,-68.1 4.26,-68.1 0,0 -38.35,-12.8 -53.26,-29.9 -14.91,-17 -51.13,-44.7 -51.13,-44.7 0,0 -29.83,-102.3 -31.96,-115 -2.13,-12.8 2.13,-25.6 -6.39,-66.1 -8.52,-40.5 59.65,-123.6 59.65,-123.6 l 127.85,66.1 63.9,78.8 -57.5,89.5 c 0,0 -21.3,2.1 49,72.4 70.3,70.3 89.5,95.9 93.7,108.7 4.3,12.8 8.5,85.2 8.5,85.2 l -57.5,87.4 c 0,0 42.6,23.4 68.2,31.9 25.6,8.5 49,21.3 49,21.3 l 61.8,46.9 61.8,57.5 c 0,0 78.8,36.2 98,55.4 19.1,19.2 21.3,23.4 38.3,40.5 17,17 40.5,40.5 40.5,40.5 0,0 -2.1,44.7 31.9,61.7 34.1,17.1 106.6,38.4 106.6,38.4 l 53.5,55.4 78.5,104.4 c 0,0 6.4,-42.6 25.6,51.1 19.2,93.7 10.7,121.4 10.7,121.4 l -74.6,61.8 h -46.9"
         style="fill:#000000;fill-opacity:1;fill-rule:nonzero;stroke:none"
         transform="matrix(0.13333333,0,0,-0.13333333,0,5333.3333)" />
      <path
         id="path61"
         d="m 10032.5,5642.5 -51.1,-10.7 c 0,0 12.78,-40.5 34.1,-42.6 21.3,-2.1 12.8,-8.5 34.1,0 21.3,8.5 23.4,36.2 23.4,36.2 l -40.5,17.1"
         style="fill:#000000;fill-opacity:1;fill-rule:nonzero;stroke:none"
         transform="matrix(0.13333333,0,0,-0.13333333,0,5333.3333)" />
      <path
         id="path62"
         d="m 10364.9,5020.4 c 0,0 -25.6,19.1 -55.4,-34.1 -29.8,-53.3 -49,-89.5 -49,-89.5 l -17.1,-27.7 -10.6,-36.2 c 0,0 76.7,46.9 83.1,51.1 6.4,4.3 25.1,89.5 25.1,89.5 l 23.9,46.9"
         style="fill:#000000;fill-opacity:1;fill-rule:nonzero;stroke:none"
         transform="matrix(0.13333333,0,0,-0.13333333,0,5333.3333)" />
      <path
         id="path63"
         d="m 10273.3,4751.9 c 0,0 -17.1,-10.6 -21.3,-23.4 -4.3,-12.8 34.1,-21.3 34.1,-21.3 v 36.2 l -12.8,8.5"
         style="fill:#000000;fill-opacity:1;fill-rule:nonzero;stroke:none"
         transform="matrix(0.13333333,0,0,-0.13333333,0,5333.3333)" />
      <path
         id="path64"
         d="m 10194.4,4579.4 -17,-12.8 32,-21.3 h 23.4 l -38.4,34.1"
         style="fill:#000000;fill-opacity:1;fill-rule:nonzero;stroke:none"
         transform="matrix(0.13333333,0,0,-0.13333333,0,5333.3333)" />
      <path
         id="path65"
         d="m 9269.83,5369.8 c -14.91,6.4 -29.83,34 -51.13,14.9 -21.3,-19.2 -44.74,-40.5 -12.78,-46.9 31.96,-6.4 40.48,-6.4 40.48,-6.4 l 23.43,38.4"
         style="fill:#000000;fill-opacity:1;fill-rule:nonzero;stroke:none"
         transform="matrix(0.13333333,0,0,-0.13333333,0,5333.3333)" />
      <path
         id="path66"
         d="m 8603,4992.7 -66.04,14.9 c 0,0 -66.05,-10.7 -74.57,-38.4 -8.52,-27.7 4.26,-80.9 4.26,-80.9 0,0 70.31,-51.2 104.39,-55.4 34.09,-4.3 57.52,-34.1 63.92,14.9 6.39,49 -31.96,144.9 -31.96,144.9"
         style="fill:#000000;fill-opacity:1;fill-rule:nonzero;stroke:none"
         transform="matrix(0.13333333,0,0,-0.13333333,0,5333.3333)" />
      <path
         id="path67"
         d="m 8709.53,4950.1 c -8.53,-46.9 -31.96,-49 -8.53,-46.9 23.44,2.1 40.48,23.2 40.48,23.2 l -4.26,13 -27.69,10.7"
         style="fill:#000000;fill-opacity:1;fill-rule:nonzero;stroke:none"
         transform="matrix(0.13333333,0,0,-0.13333333,0,5333.3333)" />
      <path
         id="path68"
         d="m 9112.18,4982 -25.56,-31.9 17.04,-21.8 31.96,21.8 -23.44,31.9"
         style="fill:#000000;fill-opacity:1;fill-rule:nonzero;stroke:none"
         transform="matrix(0.13333333,0,0,-0.13333333,0,5333.3333)" />
      <path
         id="path69"
         d="m 9372.09,4760.5 c -23.43,-2.2 -25.56,2.1 -55.39,-8.6 -29.82,-10.6 -86.66,-44.7 -86.66,-44.7 v -38.3 l -102.95,-89.5 245,-17.1 h 21.31 l 25.56,61.8 -21.3,136.4 h -25.57"
         style="fill:#000000;fill-opacity:1;fill-rule:nonzero;stroke:none"
         transform="matrix(0.13333333,0,0,-0.13333333,0,5333.3333)" />
      <path
         id="path70"
         d="m 9529.75,4694.4 c 0,0 -19.17,-12.8 -19.17,-19.2 0,-6.4 -25.57,-23.4 8.52,-25.5 34.08,-2.2 49,11.7 49,11.7 l -38.35,33"
         style="fill:#000000;fill-opacity:1;fill-rule:nonzero;stroke:none"
         transform="matrix(0.13333333,0,0,-0.13333333,0,5333.3333)" />
      <path
         id="path71"
         d="m 15259.6,4220.4 c -6.4,0 -27.7,-1.1 -36.2,-16 -8.5,-14.9 -7.5,-47.9 19.1,-38.3 26.7,9.5 39.5,36.2 39.5,36.2 l -22.4,18.1"
         style="fill:#000000;fill-opacity:1;fill-rule:nonzero;stroke:none"
         transform="matrix(0.13333333,0,0,-0.13333333,0,5333.3333)" />
      <path
         id="path72"
         d="m 15165.8,4128.8 c -6.3,-2.1 -46.8,-39.4 -46.8,-39.4 l -22.4,-64 c 0,0 -1.1,-43.6 36.2,-51.1 37.3,-7.4 33,-85.2 73.5,-4.2 40.5,80.9 38.4,90.5 38.4,90.5 l -78.9,68.2"
         style="fill:#000000;fill-opacity:1;fill-rule:nonzero;stroke:none"
         transform="matrix(0.13333333,0,0,-0.13333333,0,5333.3333)" />
      <path
         id="path73"
         d="m 6323.96,2515 c 0,0 -4.8,8 -12.26,0 -7.45,-8 -5.86,-21.3 -5.86,-21.3 l 18.12,-1.1 v 22.4"
         style="fill:#000000;fill-opacity:1;fill-rule:nonzero;stroke:none"
         transform="matrix(0.13333333,0,0,-0.13333333,0,5333.3333)" />
      <path
         id="path74"
         d="m 6423.02,2487.3 c -2.13,0.5 -23.44,0 -23.44,0 l -0.53,-22.4 28.23,-9.1 -4.26,31.5"
         style="fill:#000000;fill-opacity:1;fill-rule:nonzero;stroke:none"
         transform="matrix(0.13333333,0,0,-0.13333333,0,5333.3333)" />
      <path
         id="path75"
         d="m 6209.17,2372.5 c 0,0 -69.5,-32.8 -48.73,-46.3 20.78,-13.6 54.33,-31.2 54.33,-31.2 l 39.15,21.6 -44.75,55.9"
         style="fill:#000000;fill-opacity:1;fill-rule:nonzero;stroke:none"
         transform="matrix(0.13333333,0,0,-0.13333333,0,5333.3333)" />
      <path
         id="path76"
         d="m 6337,2350.9 c 0.63,0 2.06,-1 4.21,-2.9 33.62,-29.3 241.86,-267.9 241.86,-267.9 l -264.44,-12.8 18.37,283.6"
         style="fill:#000000;fill-opacity:1;fill-rule:nonzero;stroke:none"
         transform="matrix(0.13333333,0,0,-0.13333333,0,5333.3333)" />
      <path
         id="path77"
         d="m 5498.94,2159.2 c -9.59,0 -35.16,1.6 -33.56,-19.2 1.6,-20.8 12.78,-27.2 12.78,-27.2 l 20.78,17.6 v 28.8"
         style="fill:#000000;fill-opacity:1;fill-rule:nonzero;stroke:none"
         transform="matrix(0.13333333,0,0,-0.13333333,0,5333.3333)" />
      <path
         id="path78"
         d="m 5508.53,2020.2 c -14.38,-1.6 -62.32,1.6 -59.13,-25.6 3.2,-27.2 -6.39,-41.5 23.97,-43.1 30.36,-1.6 30.36,-1.6 30.36,-1.6 l 39.95,35.1 -35.15,35.2"
         style="fill:#000000;fill-opacity:1;fill-rule:nonzero;stroke:none"
         transform="matrix(0.13333333,0,0,-0.13333333,0,5333.3333)" />
      <path
         id="path79"
         d="m 4693.63,1357.1 c 0,0 28.76,12.7 54.32,28.7 25.57,16 39.95,52.8 39.95,52.8 l 30.36,73.5 c 0,0 -23.97,-9.6 20.77,75.1 44.74,84.6 25.56,63.9 73.5,137.4 47.93,73.5 54.33,110.2 54.33,110.2 l -36.75,12.8 c 0,0 -47.94,-78.3 -73.5,-115 -25.57,-36.8 -59.12,-65.6 -59.12,-65.6 l -57.52,-79.8 c 0,0 -17.58,4.7 -23.97,0 -6.4,-4.8 -51.13,7.9 -51.13,7.9 0,0 -67.11,-27.1 -78.3,-31.9 -11.18,-4.8 -28.76,-32 -28.76,-32 0,0 54.33,-11.2 51.13,-36.7 -3.19,-25.6 -30.36,-92.7 -30.36,-92.7 l 9.59,-44.7 h 105.46"
         style="fill:#000000;fill-opacity:1;fill-rule:nonzero;stroke:none"
         transform="matrix(0.13333333,0,0,-0.13333333,0,5333.3333)" />
      <path
         id="path80"
         d="m 4484.31,1253.2 c -11.19,0 -84.69,-3.2 -83.09,-17.6 1.6,-14.4 15.98,-57.5 15.98,-57.5 l 46.34,8 20.77,67.1"
         style="fill:#000000;fill-opacity:1;fill-rule:nonzero;stroke:none"
         transform="matrix(0.13333333,0,0,-0.13333333,0,5333.3333)" />
      <path
         id="path81"
         d="m 4289.38,1253.2 c 15.97,17.6 94.21,87.9 111.82,97.5 17.6,9.6 41.55,25.5 41.55,25.5 0,0 -151.78,78.3 -177.34,84.7 -25.57,6.4 -41.55,32 -67.11,43.2 -25.57,11.1 -73.51,35.1 -73.51,35.1 0,0 -51.12,-20.8 -43.13,-65.5 7.98,-44.7 28.76,-110.2 7.98,-116.6 -20.77,-6.4 -78.29,-11.2 -78.29,-11.2 0,0 -49.53,16 -54.32,-16 -4.8,-32 63.91,-95.9 63.91,-95.9 l 87.88,-1.6 180.56,20.8"
         style="fill:#000000;fill-opacity:1;fill-rule:nonzero;stroke:none"
         transform="matrix(0.13333333,0,0,-0.13333333,0,5333.3333)" />
      <path
         id="path82"
         d="m 4123.2,956 c 0,0 -19.17,-14.402 -22.37,-30.398 -3.2,-15.903 -6.39,-70.301 -6.39,-70.301 h 89.48 L 4171.13,905.699 4123.2,956"
         style="fill:#000000;fill-opacity:1;fill-rule:nonzero;stroke:none"
         transform="matrix(0.13333333,0,0,-0.13333333,0,5333.3333)" />
      <path
         id="path83"
         d="m 3811.62,1155.7 c -12.78,0 -52.73,-12.8 -39.95,-23.9 12.79,-11.2 25.57,-14.4 25.57,-14.4 0,0 28.76,1.6 28.76,6.4 0,4.8 -14.38,31.9 -14.38,31.9"
         style="fill:#000000;fill-opacity:1;fill-rule:nonzero;stroke:none"
         transform="matrix(0.13333333,0,0,-0.13333333,0,5333.3333)" />
      <path
         id="path84"
         d="m 2956.78,1641.5 -36.75,-16 -7.99,-35.1 67.11,-28.8 28.76,3.2 25.57,65.5 -76.7,11.2"
         style="fill:#000000;fill-opacity:1;fill-rule:nonzero;stroke:none"
         transform="matrix(0.13333333,0,0,-0.13333333,0,5333.3333)" />
      <path
         id="path85"
         d="m 30223.3,1250.5 c -7.4,0.6 -67.6,-12.7 -56.4,-17.5 11.2,-4.8 19.7,-16.5 26.1,-19.2 6.4,-2.7 34.6,-7.5 34.6,-7.5 l -4.3,44.2"
         style="fill:#000000;fill-opacity:1;fill-rule:nonzero;stroke:none"
         transform="matrix(0.13333333,0,0,-0.13333333,0,5333.3333)" />
      <path
         id="path86"
         d="m 30016.2,2213.5 c 0,0 -40,-59.1 -40,-68.7 0,-9.6 8,-20.8 8,-20.8 0,0 20.8,3.2 62.3,28.8 41.6,25.5 -30.3,60.7 -30.3,60.7"
         style="fill:#000000;fill-opacity:1;fill-rule:nonzero;stroke:none"
         transform="matrix(0.13333333,0,0,-0.13333333,0,5333.3333)" />
      <path
         id="path87"
         d="m 29968.2,3338.4 c -5.6,0 -28.7,0 -28.7,0 0,0 3.1,-35.2 10.3,-37.6 7.2,-2.4 31.2,4 31.2,4 l -12.8,33.6"
         style="fill:#000000;fill-opacity:1;fill-rule:nonzero;stroke:none"
         transform="matrix(0.13333333,0,0,-0.13333333,0,5333.3333)" />
      <path
         id="path88"
         d="m 31180.4,5607.3 -15.9,-27.7 5.3,-93.7 c 0,0 17,-52.2 20.2,-74.6 3.2,-22.4 -23.4,-85.2 -23.4,-85.2 0,0 37.3,-49 86.3,-49 49,0 102.2,51.1 102.2,51.1 0,0 52.2,-67.1 -4.2,9.6 -56.5,76.7 -71.4,81 -81,100.1 -9.6,19.2 -41.5,133.2 -41.5,133.2 l -48,36.2"
         style="fill:#000000;fill-opacity:1;fill-rule:nonzero;stroke:none"
         transform="matrix(0.13333333,0,0,-0.13333333,0,5333.3333)" />
      <path
         id="path89"
         d="m 31254.5,6431.8 -9.6,-107.1 c 0,0 -17.6,1.6 -9.6,-39.9 8,-41.5 28.8,-102.3 28.8,-102.3 l -9.6,-20.7 122.6,6.4 6.8,71.9 -39.9,71.9 -89.5,119.8"
         style="fill:#000000;fill-opacity:1;fill-rule:nonzero;stroke:none"
         transform="matrix(0.13333333,0,0,-0.13333333,0,5333.3333)" />
      <path
         id="path90"
         d="m 31329.6,6987.8 c -4.3,0 -36.3,-3.1 -36.3,-3.1 l 6.4,-24.6 37.3,-20.2 -7.4,47.9"
         style="fill:#000000;fill-opacity:1;fill-rule:nonzero;stroke:none"
         transform="matrix(0.13333333,0,0,-0.13333333,0,5333.3333)" />
      <path
         id="path91"
         d="m 31212.4,7345.8 c -14.9,1 -86.3,101.2 -60.7,1 25.5,-100.1 46.8,-128.9 46.8,-128.9 0,0 7.5,-14.9 27.7,-26.6 20.3,-11.7 35.2,-11.7 35.2,-11.7 0,0 29.8,-1.1 22.4,35.1 -7.5,36.2 -21.3,71.4 -21.3,71.4 l -50.1,59.7"
         style="fill:#000000;fill-opacity:1;fill-rule:nonzero;stroke:none"
         transform="matrix(0.13333333,0,0,-0.13333333,0,5333.3333)" />
      <path
         id="path92"
         d="m 28531.2,12257.5 c -12.8,2.1 -27.7,0 -27.7,0 v -40.5 c 0,0 42.6,-14.9 42.6,0 0,14.9 -14.9,40.5 -14.9,40.5"
         style="fill:#000000;fill-opacity:1;fill-rule:nonzero;stroke:none"
         transform="matrix(0.13333333,0,0,-0.13333333,0,5333.3333)" />
      <path
         id="path93"
         d="m 27734.2,15797.3 c -4.6,1.4 -17.2,-3.2 -17.2,-3.2 0,0 -13.8,-20.4 -4.4,-28.7 9.4,-8.2 17.8,-11 17.8,-11 0,0 26.1,-0.8 24.1,14.6 -2,15.5 -20.3,28.3 -20.3,28.3"
         style="fill:#000000;fill-opacity:1;fill-rule:nonzero;stroke:none"
         transform="matrix(0.13333333,0,0,-0.13333333,0,5333.3333)" />
      <path
         id="path94"
         d="m 27798.3,16966.9 c -14.9,10.6 -29.8,33 -60.7,33 -30.9,0 -75.6,-29.8 -91.6,-40.5 -16,-10.6 -69.2,-14.9 -57.5,-36.2 11.7,-21.3 35.2,-20.3 86.3,-66.1 51.1,-45.8 93.7,-79.8 93.7,-79.8 0,0 97,28.7 98,34 1.1,5.4 19.2,88.5 19.2,88.5 l -87.4,67.1"
         style="fill:#000000;fill-opacity:1;fill-rule:nonzero;stroke:none"
         transform="matrix(0.13333333,0,0,-0.13333333,0,5333.3333)" />
      <path
         id="path95"
         d="m 27510.7,18324.5 c -14.3,0 -49.5,30.4 -70.3,-8 -20.7,-38.3 -15.9,-57.5 -15.9,-57.5 l 52.7,-52.7 71.9,17.5 -38.4,100.7"
         style="fill:#000000;fill-opacity:1;fill-rule:nonzero;stroke:none"
         transform="matrix(0.13333333,0,0,-0.13333333,0,5333.3333)" />
      <path
         id="path96"
         d="m 27424,18676 c -9.1,11.2 42,62.3 -37.9,33.6 -79.9,-28.8 -100.7,-25.6 -87.9,-67.1 12.8,-41.6 -52.7,-87.9 33.6,-68.7 86.3,19.1 97.8,30.3 100,36.7 2.2,6.4 -7.8,65.5 -7.8,65.5"
         style="fill:#000000;fill-opacity:1;fill-rule:nonzero;stroke:none"
         transform="matrix(0.13333333,0,0,-0.13333333,0,5333.3333)" />
      <path
         id="path97"
         d="m 26847.6,18914.1 c -6.4,-1.6 -49.5,54.3 -47.9,-16 1.6,-70.3 -19.2,-102.2 24,-76.7 43.1,25.6 52.7,38.4 52.7,44.8 0,6.3 -28.8,47.9 -28.8,47.9"
         style="fill:#000000;fill-opacity:1;fill-rule:nonzero;stroke:none"
         transform="matrix(0.13333333,0,0,-0.13333333,0,5333.3333)" />
      <path
         id="path98"
         d="m 27013.8,19209.7 c -11.2,1.6 -1.6,22.4 -43.1,-28.8 -41.6,-51.1 -68.7,-108.6 -68.7,-108.6 0,0 -16,-20.8 -8,-27.2 8,-6.4 76.7,6.4 76.7,6.4 l 67.1,76.7 -24,81.5"
         style="fill:#000000;fill-opacity:1;fill-rule:nonzero;stroke:none"
         transform="matrix(0.13333333,0,0,-0.13333333,0,5333.3333)" />
      <path
         id="path99"
         d="m 26997.8,19428.6 c 0,0 -44.7,44.7 -20.7,-11.2 23.9,-55.9 31.9,-71.9 39.9,-54.3 8,17.6 20.8,68.4 20.8,68.4 l -40,-2.9"
         style="fill:#000000;fill-opacity:1;fill-rule:nonzero;stroke:none"
         transform="matrix(0.13333333,0,0,-0.13333333,0,5333.3333)" />
      <path
         id="path100"
         d="m 27154.9,19905.8 c -17,-8.5 -48.9,-74.5 -57.5,-110.8 -8.5,-36.2 2.2,-123.5 2.2,-123.5 l 138.4,23.4 23.5,93.7 -44.8,83.1 -61.8,34.1"
         style="fill:#000000;fill-opacity:1;fill-rule:nonzero;stroke:none"
         transform="matrix(0.13333333,0,0,-0.13333333,0,5333.3333)" />
      <path
         id="path101"
         d="m 35253.9,34331.6 c 0,0 -36.8,-31.9 -38.4,-39.9 -1.6,-8 52.7,0 52.7,0 l -14.3,39.9"
         style="fill:#000000;fill-opacity:1;fill-rule:nonzero;stroke:none"
         transform="matrix(0.13333333,0,0,-0.13333333,0,5333.3333)" />
      <path
         id="path102"
         d="m 35877.8,35490.9 c -8,1.6 -31.9,-11.2 -31.9,-11.2 l 35.9,-71.9 67.1,-17.6 -14.4,67.9 -56.7,32.8"
         style="fill:#000000;fill-opacity:1;fill-rule:nonzero;stroke:none"
         transform="matrix(0.13333333,0,0,-0.13333333,0,5333.3333)" />
      <path
         id="path103"
         d="m 16712,17036.6 c -3.2,0 -48.4,17.1 -48.4,17.1 l -34.1,-33.6 40.5,-51.1 c 0,0 38.8,-34.1 53.7,-36.2 15,-2.2 25.6,34.6 25.6,34.6 l -37.3,69.2"
         style="fill:#000000;fill-opacity:1;fill-rule:nonzero;stroke:none"
         transform="matrix(0.13333333,0,0,-0.13333333,0,5333.3333)" />
      <path
         id="path104"
         d="m 15801.8,17991.6 c 0,0 -37.3,18.1 -45.8,0 -8.5,-18.1 0,-27.7 0,-27.7 0,0 38.3,-17 52.2,0 13.8,17.1 -6.4,27.7 -6.4,27.7"
         style="fill:#000000;fill-opacity:1;fill-rule:nonzero;stroke:none"
         transform="matrix(0.13333333,0,0,-0.13333333,0,5333.3333)" />
      <path
         id="path105"
         d="m 16594.3,18128 c -8,3.2 -23.9,0 -23.9,0 0,0 3.1,-24 31.9,-35.2 28.8,-11.2 57.5,-27.2 57.5,-27.2 l -65.5,62.4"
         style="fill:#000000;fill-opacity:1;fill-rule:nonzero;stroke:none"
         transform="matrix(0.13333333,0,0,-0.13333333,0,5333.3333)" />
      <path
         id="path106"
         d="m 16672.6,18391.6 c -17.6,4.8 -54.3,-1.6 -83.1,0 -28.7,1.6 -46.3,-30.4 -46.3,-30.4 l 3.2,-67.1 68.7,-11.2 57.5,108.7"
         style="fill:#000000;fill-opacity:1;fill-rule:nonzero;stroke:none"
         transform="matrix(0.13333333,0,0,-0.13333333,0,5333.3333)" />
      <path
         id="path107"
         d="m 16761.6,18246.2 c 11.7,7.5 91.6,35.2 119.3,56.5 27.7,21.3 37.2,72.4 37.2,72.4 l -133.1,-8.5 -76.7,-83.7 53.3,-36.7"
         style="fill:#000000;fill-opacity:1;fill-rule:nonzero;stroke:none"
         transform="matrix(0.13333333,0,0,-0.13333333,0,5333.3333)" />
      <path
         id="path108"
         d="m 17260.1,18449.7 -7.5,56.4 -69.2,1.1 -71.4,-17.1 -58.6,-12.7 -36.2,-69.3 21.3,-63.9 57.5,-1.1 85.3,32 h 38.3 l 40.5,74.6"
         style="fill:#000000;fill-opacity:1;fill-rule:nonzero;stroke:none"
         transform="matrix(0.13333333,0,0,-0.13333333,0,5333.3333)" />
      <path
         id="path109"
         d="m 16942.6,18973.8 -58.5,-21.4 c 0,0 -26.7,-19.1 -48,-63.9 -21.3,-44.7 -105.4,40.5 -22.9,-76.7 82.6,-117.1 93.2,-139.5 93.2,-139.5 0,0 -38.3,-47.9 -22.3,-54.3 15.9,-6.4 73.5,-12.8 73.5,-12.8 l 68.1,34.1 16,70.3 -31.9,53.2 -24.5,67.1 -37.3,143.9 h -5.4"
         style="fill:#000000;fill-opacity:1;fill-rule:nonzero;stroke:none"
         transform="matrix(0.13333333,0,0,-0.13333333,0,5333.3333)" />
      <path
         id="path110"
         d="m 17562.6,18933.3 c -4.8,0 -102.3,-62.3 -102.3,-62.3 0,0 -44.7,-76.7 -30.3,-94.3 14.4,-17.6 44.7,-27.2 44.7,-27.2 l 129.4,73.5 6.4,121.5 -47.9,-11.2"
         style="fill:#000000;fill-opacity:1;fill-rule:nonzero;stroke:none"
         transform="matrix(0.13333333,0,0,-0.13333333,0,5333.3333)" />
      <path
         id="path111"
         d="m 17922.1,19065.9 c -17.6,-6.4 -124.6,-102.3 -124.6,-102.3 l -51.1,-49.5 -54.4,-92.7 71.9,-91.1 19.2,-41.5 174.2,100.7 68.7,155 c 0,0 62.3,20.7 23.9,47.9 -38.3,27.2 -127.8,73.5 -127.8,73.5"
         style="fill:#000000;fill-opacity:1;fill-rule:nonzero;stroke:none"
         transform="matrix(0.13333333,0,0,-0.13333333,0,5333.3333)" />
      <path
         id="path112"
         d="m 18228.9,18800.7 c -4.8,0.7 0.8,19.1 -12.8,0 -13.6,-19.2 2.4,-30.4 2.4,-30.4 l 19.2,12.8 -8.8,17.6"
         style="fill:#000000;fill-opacity:1;fill-rule:nonzero;stroke:none"
         transform="matrix(0.13333333,0,0,-0.13333333,0,5333.3333)" />
      <path
         id="path113"
         d="m 18525.3,18735.9 c -3.2,-1.6 -34.3,-22.3 -34.3,-22.3 l 9.5,-24.8 39.2,4 6.4,32.8 -20.8,10.3"
         style="fill:#000000;fill-opacity:1;fill-rule:nonzero;stroke:none"
         transform="matrix(0.13333333,0,0,-0.13333333,0,5333.3333)" />
      <path
         id="path114"
         d="m 16238.5,18097.5 c -3.2,3.8 -35.1,0 -35.1,0 0,0 -38.4,-26 -7.5,-31.9 30.9,-5.8 50.1,-5.8 50.1,-5.8 l -7.5,37.7"
         style="fill:#000000;fill-opacity:1;fill-rule:nonzero;stroke:none"
         transform="matrix(0.13333333,0,0,-0.13333333,0,5333.3333)" />
      <path
         id="path115"
         d="m 18696,19046.2 c 19.2,7.4 138.5,58.6 138.5,58.6 l 51.1,38.7 -91.6,41.2 -67.1,-1.1 -73.5,-74.6 42.6,-62.8"
         style="fill:#000000;fill-opacity:1;fill-rule:nonzero;stroke:none"
         transform="matrix(0.13333333,0,0,-0.13333333,0,5333.3333)" />
      <path
         id="path116"
         d="m 19475.2,19310.4 70.3,-25.6 89.5,-17.6 c 0,0 84.7,-36.7 86.3,52.8 1.6,89.4 6.4,107 6.4,107 l -95.9,16 -198.1,-63.9 41.5,-68.7"
         style="fill:#000000;fill-opacity:1;fill-rule:nonzero;stroke:none"
         transform="matrix(0.13333333,0,0,-0.13333333,0,5333.3333)" />
      <path
         id="path117"
         d="m 19337.8,19334.3 c -4.8,3.2 -33.6,0 -33.6,0 l 6.4,-28.7 27.2,28.7"
         style="fill:#000000;fill-opacity:1;fill-rule:nonzero;stroke:none"
         transform="matrix(0.13333333,0,0,-0.13333333,0,5333.3333)" />
      <path
         id="path118"
         d="m 19944,19574 c 23.4,11.2 108,43.1 108,43.1 0,0 81.5,20.8 22.4,40 -59.1,19.2 -99.1,24 -99.1,24 0,0 -44.7,33.5 -52.7,-14.4 -8,-48 21.4,-92.7 21.4,-92.7"
         style="fill:#000000;fill-opacity:1;fill-rule:nonzero;stroke:none"
         transform="matrix(0.13333333,0,0,-0.13333333,0,5333.3333)" />
      <path
         id="path119"
         d="m 20541,19065.9 v 97.5 l 102.2,201.3 67.1,143.8 h -38.3 l -86.3,-83.1 c 0,0 -54.3,-61.1 -102.2,-89.6 -48,-28.6 -22.4,10.7 -86.3,-76.1 -63.9,-86.8 -70.3,-85 -79.9,-116.2 -9.6,-31.3 44.7,13.5 -19.2,-50.4 -63.9,-64 -69.6,-79.9 -69.6,-79.9 v -48 l 31.3,-73.5 57.5,-60.7 79.9,32 c 0,0 73.5,28.7 124.6,47.9 51.1,19.2 79.9,33.6 79.9,33.6 l -60.7,121.4"
         style="fill:#000000;fill-opacity:1;fill-rule:nonzero;stroke:none"
         transform="matrix(0.13333333,0,0,-0.13333333,0,5333.3333)" />
    </g>
  </g>
</svg>
